<svg xmlns="http://www.w3.org/2000/svg" viewBox="0 0 100 100"><defs><style>.cls-1{fill:#ccc;}</style></defs><title>Expense_Entertainment</title><g id="Colours"><path class="cls-1" d="M79.94,50.28V71.37H23.24L37.37,58.7l1,1,8.26-8.26.07.07-3.3,3.3L55.18,66.58a4.7,4.7,0,0,0,6.65,0L73.61,54.8l-.2-.21,3.3-3.29-1-1h4.25Z"/><path class="cls-1" d="M79.94,28.2V50.28H75.69L62,36.61,77.75,22.53A8.38,8.38,0,0,1,79.94,28.2Z"/><polygon class="cls-1" points="75.69 50.28 76.72 51.3 73.42 54.59 69.09 50.28 75.69 50.28"/><polygon class="cls-1" points="62.03 36.61 75.69 50.28 69.09 50.28 58.55 39.73 62.03 36.61"/><path class="cls-1" d="M73.42,54.59l.2.21L61.83,66.58a4.7,4.7,0,0,1-6.65,0L43.39,54.8l3.3-3.3,1.22-1.22H69.1Z"/><polygon class="cls-1" points="58.55 39.73 69.09 50.28 47.91 50.28 57.67 40.51 58.55 39.73"/></g><g id="Icon"><path d="M79.66,71.08H18.59a1,1,0,0,1-1-1V18.5a1,1,0,0,1,1-1H71.23a9.43,9.43,0,0,1,9.42,9.42V70.08A1,1,0,0,1,79.66,71.08Zm-60.06-2H78.66V26.92a7.43,7.43,0,0,0-7.42-7.42H19.59Z"/><path d="M70.12,87.12h-42A10.55,10.55,0,0,1,17.59,76.58v-6.5a1,1,0,0,1,1-1H79.66a1,1,0,0,1,1,1v6.5A10.55,10.55,0,0,1,70.12,87.12Zm-50.52-16v5.5a8.55,8.55,0,0,0,8.54,8.54h42a8.55,8.55,0,0,0,8.54-8.54v-5.5Z"/><path d="M79,50H19a1,1,0,0,1,0-2H79a1,1,0,0,1,0,2Z"/><path d="M38.06,59.41a1,1,0,0,1-.71-.29L22.24,44a1,1,0,0,1,0-1.41l13-13a4,4,0,0,1,5.64,0l13,13a1,1,0,0,1,0,1.41L38.76,59.12A1,1,0,0,1,38.06,59.41ZM24.36,43.3,38.06,57l13.7-13.7L39.46,31a2,2,0,0,0-2.82,0Z"/><path d="M58.21,67.68a5.68,5.68,0,0,1-4-1.67L42.39,54.22a1,1,0,0,1,0-1.41L57.5,37.7a1,1,0,0,1,1.41,0L74,52.81a1,1,0,0,1,0,1.41L62.24,66A5.68,5.68,0,0,1,58.21,67.68ZM44.51,53.51,55.59,64.59a3.71,3.71,0,0,0,5.24,0L71.9,53.51l-13.7-13.7Z"/><path d="M53,44.1a1,1,0,0,1-.71-1.71l2.59-2.6L42.57,27.51a2,2,0,0,0-2.81,0L27.25,40a1,1,0,0,1-1.71.69l-.2-.2a1,1,0,0,1,0-1.42l13-13a4,4,0,0,1,5.64,0l13,13a1,1,0,0,1,0,1.41l-3.3,3.31A1,1,0,0,1,53,44.1Z"/><path d="M73.12,54.31a1,1,0,0,1-.71-1.71L75,50,61.31,36.32l-14,14a1,1,0,0,1-1.65.63l-.09-.09-.12-.13a1,1,0,0,1,0-1.39L60.61,34.2a1,1,0,0,1,1.42,0l15.1,15.11a1,1,0,0,1,0,1.41L73.83,54A1,1,0,0,1,73.12,54.31Z"/></g><g id="Detail"><path d="M87,87H11a1,1,0,0,1,0-2H87a1,1,0,0,1,0,2Z"/></g></svg>