<svg xmlns="http://www.w3.org/2000/svg" viewBox="0 0 100 100"><defs><style>.cls-1{fill:#ccc;}.cls-2{fill:none;stroke:#000;stroke-linecap:round;stroke-linejoin:round;stroke-width:2px;}</style></defs><title>Expense_Groceries</title><g id="Colours"><path class="cls-1" d="M77.1,34.56V78.82a6.68,6.68,0,0,1-6.68,6.68H68.56V34.56H77.1Z"/><path class="cls-1" d="M70.33,31.89a8.73,8.73,0,0,1-.42,2.67h-10a8.73,8.73,0,0,0,.42-2.67,8.56,8.56,0,0,0-3.62-7,8.6,8.6,0,0,1,13.6,7Z"/><path class="cls-1" d="M56.74,34.56H43.56c0-.12-.08-.25-.11-.38V29.61a8.6,8.6,0,0,1,8.3-6.32,8.62,8.62,0,0,1,8.61,8.6,8.73,8.73,0,0,1-.42,2.67Z"/></g><g id="Icon"><path class="cls-2" d="M25.78,33.28H68.26a0,0,0,0,1,0,0V84.22a0,0,0,0,1,0,0H21.33a0,0,0,0,1,0,0V37.72A4.44,4.44,0,0,1,25.78,33.28Z"/><path class="cls-2" d="M29.88,33.28H76.8V77.54a6.68,6.68,0,0,1-6.68,6.68H29.88"/><path class="cls-2" d="M35.76,11.52h0a7.39,7.39,0,0,1,7.39,7.39V33.3a0,0,0,0,1,0,0H28.36a0,0,0,0,1,0,0V18.91a7.39,7.39,0,0,1,7.39-7.39Z"/><path class="cls-2" d="M59.64,33.28a8.71,8.71,0,0,0,.42-2.67,8.61,8.61,0,0,0-16.9-2.29"/><path class="cls-2" d="M43.26,33.28c0-.12-.08-.25-.11-.38"/><path class="cls-2" d="M56.44,23.61a8.6,8.6,0,0,1,13.6,7,8.71,8.71,0,0,1-.42,2.67"/></g><g id="Detail"><line class="cls-2" x1="31.75" y1="22.01" x2="36.96" y2="16.8"/><path class="cls-2" d="M32.83,29.17c.5,0,5.79-5.79,5.79-5.79"/><path class="cls-2" d="M53.34,25.67s4.63,1.81,3.1,7.61"/><line class="cls-2" x1="72" y1="35" x2="72" y2="77"/><line class="cls-2" x1="15" y1="85" x2="82" y2="85"/></g></svg>