<svg xmlns="http://www.w3.org/2000/svg" viewBox="0 0 100 100"><defs><style>.cls-1{fill:#ccc;}.cls-2{fill:none;stroke:#000;stroke-linecap:round;stroke-linejoin:round;stroke-width:2px;}</style></defs><title>Expense_Household</title><g id="Colours"><path class="cls-1" d="M80.47,33.28v9.5H27.38A7.58,7.58,0,0,1,19.8,35.2V33.28Z"/><path class="cls-1" d="M57.55,65.24V87.49a7.79,7.79,0,0,1-15.58,0V65.24H57.55Z"/></g><g id="Icon"><path class="cls-2" d="M19.5,21.5H75.71A4.47,4.47,0,0,1,80.17,26V41.5a0,0,0,0,1,0,0H27.08a7.58,7.58,0,0,1-7.58-7.58V21.5A0,0,0,0,1,19.5,21.5Z"/><path class="cls-2" d="M81,32h2.53A2.48,2.48,0,0,1,86,34.47V45.76a4.37,4.37,0,0,1-3.1,4.18L56.49,54.58C51.5,55.5,48.9,58.89,49,64"/><line class="cls-2" x1="19" y1="31" x2="14" y2="31"/><path class="cls-2" d="M41.67,64H57.25a0,0,0,0,1,0,0V86.21A7.79,7.79,0,0,1,49.46,94h0a7.79,7.79,0,0,1-7.79-7.79V64A0,0,0,0,1,41.67,64Z"/></g><g id="Detail"><line class="cls-2" x1="23" y1="25" x2="77" y2="25"/><line class="cls-2" x1="23" y1="28" x2="77" y2="28"/><line class="cls-2" x1="52" y1="72.13" x2="47.81" y2="76.32"/><line class="cls-2" x1="52" y1="76.21" x2="47.81" y2="80.4"/><line class="cls-2" x1="52" y1="80.87" x2="47.81" y2="85.06"/></g></svg>