<svg xmlns="http://www.w3.org/2000/svg" viewBox="0 0 100 100"><defs><style>.cls-1{fill:#ccc;}.cls-2{fill:none;stroke:#000;stroke-linecap:round;stroke-linejoin:round;stroke-width:2px;}</style></defs><title>Expense_Personal</title><g id="Colours"><polygon class="cls-1" points="59.02 81.11 57.98 87.28 40.22 87.28 40.22 84.74 59.99 38.96 66.2 38.96 59.02 81.11"/><path class="cls-1" d="M60,39,40.22,84.74v2.54H34l-.43-4L36.13,83,46.48,59A13.19,13.19,0,0,0,52.3,48.06V45.55L55.15,39Z"/><polygon class="cls-1" points="55.15 38.96 52.3 45.55 52.3 38.96 55.15 38.96"/><path class="cls-1" d="M46.48,59,36.13,83l-2.51.26-2.29-22h7.75A13.16,13.16,0,0,0,46.48,59Z"/></g><g id="Icon"><path class="cls-2" d="M60.08,86H33.75l-4-38.42a9,9,0,0,1,9-9.93H74.5l-6,41.1A8.48,8.48,0,0,1,60.08,86Z"/><line class="cls-2" x1="66.33" y1="11.11" x2="35.83" y2="81.69"/><path class="cls-2" d="M62.37,14.39h6.42a3.06,3.06,0,0,1,3.06,3.06v7.63a3.06,3.06,0,0,1-3.06,3.06H62.37a0,0,0,0,1,0,0V14.39a0,0,0,0,1,0,0Z" transform="translate(13.94 -24.87) rotate(23.37)"/><line class="cls-2" x1="63.79" y1="28.22" x2="39.92" y2="83.46"/><line class="cls-2" x1="70.42" y1="12.88" x2="69.98" y2="13.9"/><path class="cls-2" d="M69.57,14.84l5.89,2.55a3.06,3.06,0,0,1,1.59,4l-3,7A3.06,3.06,0,0,1,70,30l-5.89-2.55"/></g><g id="Detail"><path class="cls-2" d="M67.48,57.09,64.85,73.42A7.82,7.82,0,0,1,57.13,80H46"/><line class="cls-2" x1="69.98" y1="41.65" x2="68.4" y2="51.4"/><line class="cls-2" x1="24" y1="86" x2="75" y2="86"/></g></svg>