<svg xmlns="http://www.w3.org/2000/svg" viewBox="0 0 100 100"><defs><style>.cls-1{fill:#ccc;}.cls-2{fill:none;stroke:#000;stroke-linecap:round;stroke-linejoin:round;stroke-width:2px;}</style></defs><title>Epense_Transport</title><g id="Colours"><path class="cls-1" d="M56.32,72.28V79a4.87,4.87,0,0,1-4.88,4.88h0l.27-25a4.78,4.78,0,0,1,3.19,1.41,4.87,4.87,0,0,1,1.43,3.46Z"/><path class="cls-1" d="M51.93,38.32l-.06,5.05-.06,5.06L51.7,58.85a1.14,1.14,0,0,0-.26,0,4.89,4.89,0,0,0-4.88,4.89v8.56h-6.4c-2.8,0-4.86-2.67-4.86-5.47V45.43A15.82,15.82,0,0,1,49.85,29.55a5.54,5.54,0,0,0,2,.35H52Z"/><path class="cls-1" d="M51.7,58.85l-.27,25A4.88,4.88,0,0,1,46.56,79V63.72a4.89,4.89,0,0,1,4.88-4.89A1.14,1.14,0,0,1,51.7,58.85Z"/></g><g id="Icon"><path class="cls-2" d="M49.55,28.27A15.82,15.82,0,0,0,35,44.15V65.53c0,2.8,2.06,5.47,4.86,5.47H46"/><path class="cls-2" d="M53.3,28.33A15.71,15.71,0,0,1,67,44.15V65.53c0,2.8-1.77,5.47-4.57,5.47H56"/><rect class="cls-2" x="46.26" y="57.55" width="9.76" height="25.02" rx="4.88" ry="4.88"/><circle class="cls-2" cx="51.51" cy="22.88" r="5.74"/><line class="cls-2" x1="67" y1="23" x2="58" y2="23"/><line class="cls-2" x1="45" y1="23" x2="36" y2="23"/><line class="cls-2" x1="46.67" y1="42" x2="53.83" y2="34.83"/><line class="cls-2" x1="46.67" y1="47" x2="53.83" y2="39.83"/><line class="cls-2" x1="46.67" y1="52" x2="53.83" y2="44.83"/><line class="cls-2" x1="29" y1="83" x2="74" y2="83"/></g></svg>