<svg xmlns="http://www.w3.org/2000/svg" viewBox="0 0 100 100"><defs><style>.cls-1{fill:#ccc;}.cls-2{fill:none;stroke:#000;stroke-linecap:round;stroke-linejoin:round;stroke-width:2px;}</style></defs><title>Expense_Study</title><g id="Colours"><path class="cls-1" d="M61.44,22.84a6.77,6.77,0,0,1,.25,9.3l-.25.27-2.73,2.74L54.55,39.3l-.31.12a19,19,0,0,0-4.79-7.27L60.1,21.5Z"/><path class="cls-1" d="M55.45,46.13a19.25,19.25,0,0,1-5.18,13.16l-7-7,6.17-20.15a19.34,19.34,0,0,1,6,14Z"/></g><g id="Icon"><line class="cls-2" x1="22" y1="81" x2="81" y2="81"/><path class="cls-2" d="M51.5,81,77.39,59.83a3.06,3.06,0,0,0,.34-4.41L58.78,34.24"/><path class="cls-2" d="M57.5,81,80,62.58a7.22,7.22,0,0,0,.81-10.4L61.4,30.87"/><path class="cls-2" d="M50,58A19.33,19.33,0,0,0,22.65,30.69"/><polyline class="cls-2" points="20.31 28.35 31.03 39.07 42.68 50.72 52 60.04"/><path class="cls-2" d="M44.16,27.41,55.58,16l5.56,5.56a6.77,6.77,0,0,1,0,9.57L54.25,38"/><path class="cls-2" d="M31.3,39.34A8.52,8.52,0,1,0,42.41,50.45"/><line class="cls-2" x1="19" y1="84" x2="86" y2="84"/></g></svg>