<svg xmlns="http://www.w3.org/2000/svg" viewBox="0 0 190.49 203.99"><defs><style>.cls-1{fill:none;stroke:#fff;stroke-linecap:round;stroke-miterlimit:10;stroke-width:2px;}</style></defs><title>Payment Selection White</title><g id="Detail"><circle cx="98.16" cy="105" r="89"/><path class="cls-1" d="M89.94,47.45h0M119.49,51h.17c5.88,2,9.32,5.29,9.32,9.81,0,13-11.5,23.8-23.5,27.86V109c0,.47-3.26,3.67-8,3.67s-7-3.2-8-3.67V89.47c-14-3-22.79-15-22.79-29,0-4.8,4.66-8.3,11.15-10.54.11,0,.29.19.4.16"/><path class="cls-1" d="M118.29,54.15c2.54,1.1,4,2.42,4,3.83,0,1.89-2.63,3.61-6.9,4.86a54.16,54.16,0,0,1-10.22,1.8c-2.29.2-4.73.31-7.25.31a73,73,0,0,1-13.87-1.24C83,63.5,82,63.26,81,63c-4.61-1.27-7.47-3-7.47-5,0-1.67,2.06-3.2,5.49-4.4"/><path class="cls-1" d="M92.44,111v1.47a8,8,0,0,1-8,8H66.47a8,8,0,0,0-8,8V145"/><path class="cls-1" d="M104.44,111v1.47a8,8,0,0,0,8,8h17.94a8,8,0,0,1,8,8V145"/><line class="cls-1" x1="98.44" y1="144.95" x2="98.44" y2="112.95"/><path class="cls-1" d="M109.46,171.1a11.39,11.39,0,0,1-11.34,11.66,11.78,11.78,0,0,1-11.8-11.66c0-4.1,1.18-7.7,5.18-9.78V148.45c1-.2,2.41-3.35,6.33-3.17a7.12,7.12,0,0,1,5.67,3.17v12.87A10.63,10.63,0,0,1,109.46,171.1Z"/><path class="cls-1" d="M149.46,171.1a11.39,11.39,0,0,1-11.34,11.66,11.78,11.78,0,0,1-11.8-11.66c0-4.1,1.18-7.7,5.18-9.78V148.45c1-.34,2.4-2.83,6-2.83s6,2.5,6,2.83v12.87A10.63,10.63,0,0,1,149.46,171.1Z"/><path class="cls-1" d="M69.46,171.1a11.39,11.39,0,0,1-11.34,11.66,11.78,11.78,0,0,1-11.8-11.66c0-4.1,1.18-7.7,5.18-9.78V148.45c1-.37,2.48-2.67,6-2.67s6,2.3,6,2.67v12.87A10.63,10.63,0,0,1,69.46,171.1Z"/><line class="cls-1" x1="86.91" y1="172.45" x2="108.93" y2="172.45"/><line class="cls-1" x1="132.44" y1="156.28" x2="143.83" y2="156.28"/><line class="cls-1" x1="68.85" y1="165.61" x2="48.91" y2="165.61"/><polyline class="cls-1" points="81.06 62.05 81.05 61.97 79.07 52.59 72.63 26.39 92.09 21.63 93.49 29"/><path class="cls-1" d="M91.55,39.4A7.63,7.63,0,0,0,80.62,48l0,.16a7.64,7.64,0,0,0,6.56,5.65"/><path class="cls-1" d="M94.41,30.85c-2.83,9.34-5.38,18.8-8.63,28l-1.71,4.87"/><polyline class="cls-1" points="104.2 64.8 107.49 53.37 107.49 53.36 108.68 51.86 109.04 51.84 110.43 47.97 110.52 47.93 113.4 38.93 113.44 38.87 116.67 28.91 106.05 26 106.04 26 105.97 25.7 96.56 22.66 93.49 30.38 93.49 30.39 93.49 30.46 93.49 30.52 93.49 30.63 93.49 31"/><circle class="cls-1" cx="100.17" cy="47.23" r="7.64" transform="translate(25.19 128.73) rotate(-72.63)"/><polyline class="cls-1" points="114.94 62.84 114.49 62.74 114.49 62.73 117.8 54.22 118.05 54.15 119.48 50.45 119.59 50.3 126.88 27.14 107.34 21.02 106.05 25.17 105.73 25.43"/><path class="cls-1" d="M113.58,38.51a9.39,9.39,0,0,1,3.63,3.69,8.61,8.61,0,0,1,.51,5.8c-.9,3.94-5.36,6.16-9.18,5.14"/></g></svg>