<svg xmlns="http://www.w3.org/2000/svg" viewBox="0 0 185.08 200"><defs><style>.cls-1,.cls-2{fill:none;stroke:#fff;stroke-linecap:round;stroke-linejoin:round;stroke-width:2px;}.cls-2{stroke-dasharray:6 3;}</style></defs><title>Budget Selection White</title><g id="Detail"><circle cx="91.74" cy="100" r="89"/><path class="cls-1" d="M159,93V73.46c0-2.93-3-6.46-5.9-6.46H151"/><path class="cls-1" d="M159,117v32.33a8.15,8.15,0,0,1-7.67,7.67H51"/><path class="cls-1" d="M93,61h50.72A3.13,3.13,0,0,1,147,64.18c0,.1,0,.46,0,.56V93"/><path class="cls-1" d="M147,117v24.68c0,3.66-2.56,9.32-6.23,9.32H45V110"/><line class="cls-1" x1="44.63" y1="150.3" x2="51.41" y2="157.08"/><path class="cls-1" d="M130.8,93.41h26a7.2,7.2,0,0,1,7.2,7.2v15.68a0,0,0,0,1,0,0H139.75a9,9,0,0,1-9-9V93.41A0,0,0,0,1,130.8,93.41Z"/><circle class="cls-1" cx="141.27" cy="104.84" r="6.3"/><line class="cls-1" x1="152.74" y1="146.77" x2="152.74" y2="117.29"/><path class="cls-1" d="M147,65h2.72c1.67,0,1.28.79,1.28,2.46V93"/><line class="cls-2" x1="140" y1="120" x2="140" y2="140"/><polyline class="cls-2" points="98 67 140 67 140 93"/><path class="cls-1" d="M45,110h4.25a6.06,6.06,0,0,0-.27-4.84,8.67,8.67,0,0,1-1-4C48,95.9,52.33,91,57.59,92H57"/><path class="cls-1" d="M98.27,70.88a9.23,9.23,0,0,1-.56,18.44,11.42,11.42,0,0,1-3.61-.65c-2.17-.86-4.1-.88-7.1,0V110H65.47c-.53-3-.44-3.77.33-5.67a8.78,8.78,0,0,0,.64-3.12,9.21,9.21,0,0,0-.22-2.2"/><path class="cls-1" d="M36,99V66c0-8.62,7.22-15,15.84-15H78"/><line class="cls-2" x1="78" y1="57" x2="51" y2="57"/><path class="cls-1" d="M78,99V78c3-.83,5.07-.81,7.24.05a11.65,11.65,0,0,0,3.61.64,9.4,9.4,0,0,0,9.47-8.86,9.26,9.26,0,0,0-9.26-9.6,10.42,10.42,0,0,0-4.44,1c-1.71.85-4.63.59-6.63-.26,0-.09,1,.07,0,0V40H19V99H40.53a5.86,5.86,0,0,0-.27-4.67,9,9,0,0,1-1-4.1,9.2,9.2,0,0,1,9.6-9.18,9.34,9.34,0,0,1,8.86,9.4,8.36,8.36,0,0,1-.64,3,8,8,0,0,0-.33,5.5Z"/></g></svg>