<svg xmlns="http://www.w3.org/2000/svg" xmlns:xlink="http://www.w3.org/1999/xlink" viewBox="0 0 99.85 26.92"><defs><style>.cls-1,.cls-2,.cls-3{fill:none;}.cls-1{clip-rule:evenodd;}.cls-3{stroke:#000;stroke-miterlimit:10;}.cls-4{clip-path:url(#clip-path);}.cls-5{clip-path:url(#clip-path-2);}.cls-6{clip-path:url(#clip-path-3);}</style><clipPath id="clip-path"><path class="cls-1" d="M22.58,4H5.81A1.83,1.83,0,0,0,4,5.9V22.49a.39.39,0,0,0,.38.4H23.71a1,1,0,0,0,1-1.09V6.3A2.2,2.2,0,0,0,22.58,4Zm-16.78.8H22.58A1.42,1.42,0,0,1,24,6.3v.35a.76.76,0,0,0-.24,0H4.79V5.9A1.05,1.05,0,0,1,5.81,4.82ZM24,21.8c0,.16-.08.29-.24.29H4.79V7.42H23.71c.15,0,.24.12.24.28v3.61H18.37a1.21,1.21,0,0,0-1.19,1.2V16a1.22,1.22,0,0,0,1.19,1.21H24v4.6Zm0-9.69V16.4H18.37a.43.43,0,0,1-.42-.41V12.51a.42.42,0,0,1,.42-.4Z"/></clipPath><clipPath id="clip-path-2"><rect class="cls-2" x="-29.78" y="-269.61" width="301.8" height="679.25"/></clipPath><clipPath id="clip-path-3"><path class="cls-1" d="M20.16,15.52a1.27,1.27,0,1,0-1.22-1.27,1.25,1.25,0,0,0,1.22,1.27m0-1.75a.47.47,0,1,1-.45.47.46.46,0,0,1,.45-.47"/></clipPath></defs><title>Habits</title><g id="Layer_2" data-name="Layer 2"><g id="Detail"><path d="M50.89,21.13H48.2V14.22H41.25v6.91h-2.7V5.58h2.7v6.47H48.2V5.58h2.69Z"/><path d="M60.74,21.13a2.11,2.11,0,0,1-.18-.48c0-.18-.09-.38-.12-.6a4.69,4.69,0,0,1-.57.5,4,4,0,0,1-.69.41,4.17,4.17,0,0,1-1.77.38,4.67,4.67,0,0,1-1.59-.26,3.75,3.75,0,0,1-1.24-.73,3.38,3.38,0,0,1-.81-1.09,3.2,3.2,0,0,1-.29-1.37,3.67,3.67,0,0,1,.35-1.64,3.18,3.18,0,0,1,1-1.2,4.91,4.91,0,0,1,1.65-.73,9,9,0,0,1,2.23-.25h1.63v-.76a2,2,0,0,0-.5-1.44,2,2,0,0,0-1.53-.54,2.68,2.68,0,0,0-.83.12,2,2,0,0,0-.63.33,1.47,1.47,0,0,0-.41.5,1.37,1.37,0,0,0-.14.62H53.71A2.77,2.77,0,0,1,54,11.59a3.61,3.61,0,0,1,1-1.13,4.89,4.89,0,0,1,1.5-.8,6.59,6.59,0,0,1,3.76,0,4,4,0,0,1,1.42.75,3.37,3.37,0,0,1,.93,1.24,4.23,4.23,0,0,1,.33,1.74v5.12a5.92,5.92,0,0,0,.44,2.49v.18Zm-2.85-1.87a2.9,2.9,0,0,0,.84-.12,3,3,0,0,0,.7-.31,2.6,2.6,0,0,0,.55-.44,2.48,2.48,0,0,0,.37-.51V15.7H59a3.83,3.83,0,0,0-2.17.5,1.63,1.63,0,0,0-.73,1.42,1.75,1.75,0,0,0,.12.65,1.39,1.39,0,0,0,.35.52,1.64,1.64,0,0,0,.57.34A2.28,2.28,0,0,0,57.89,19.26Z"/><path d="M75.8,15.47a9,9,0,0,1-.29,2.36,5.66,5.66,0,0,1-.86,1.86,4,4,0,0,1-1.41,1.22,4.58,4.58,0,0,1-3.78.06,3.7,3.7,0,0,1-1.32-1.08L68,21.13H65.66V4.73h2.59v6a3.72,3.72,0,0,1,1.29-1,4.12,4.12,0,0,1,1.74-.34,4.25,4.25,0,0,1,2,.43A4,4,0,0,1,74.65,11a5.54,5.54,0,0,1,.86,1.86,9.26,9.26,0,0,1,.29,2.38Zm-2.59-.22a8.21,8.21,0,0,0-.12-1.44,3.64,3.64,0,0,0-.42-1.2,2.31,2.31,0,0,0-.8-.82,2.35,2.35,0,0,0-1.24-.3,2.54,2.54,0,0,0-1.48.4A2.6,2.6,0,0,0,68.25,13v4.76a2.69,2.69,0,0,0,.89,1.09,2.52,2.52,0,0,0,1.5.42,2.32,2.32,0,0,0,1.21-.29,2.29,2.29,0,0,0,.79-.8,3.56,3.56,0,0,0,.43-1.19,8,8,0,0,0,.13-1.47Z"/><path d="M78,6.58a1.38,1.38,0,0,1,.38-1,1.43,1.43,0,0,1,1.08-.39,1.45,1.45,0,0,1,1.09.39,1.37,1.37,0,0,1,.38,1,1.33,1.33,0,0,1-.38,1,1.46,1.46,0,0,1-1.09.39,1.44,1.44,0,0,1-1.08-.39A1.34,1.34,0,0,1,78,6.58Zm2.75,14.55H78.14V9.58h2.59Z"/><path d="M86.8,6.77V9.58h2V11.5h-2v6.45a2,2,0,0,0,.08.64.83.83,0,0,0,.25.38.86.86,0,0,0,.38.18,2.25,2.25,0,0,0,.49,0,3.44,3.44,0,0,0,.52,0l.39-.07v2l-.72.17a5.29,5.29,0,0,1-1,.08A4,4,0,0,1,86,21.17a2.37,2.37,0,0,1-1-.56,2.58,2.58,0,0,1-.62-1,4.48,4.48,0,0,1-.22-1.52V11.5h-1.9V9.58h1.9V6.77Z"/><path d="M97.3,18a1.45,1.45,0,0,0-.09-.52,1.06,1.06,0,0,0-.36-.45,2.87,2.87,0,0,0-.75-.39,8.67,8.67,0,0,0-1.26-.34,11.2,11.2,0,0,1-1.69-.48,5.22,5.22,0,0,1-1.31-.7,3,3,0,0,1-.85-1,2.62,2.62,0,0,1-.3-1.28A3,3,0,0,1,91,11.53a3.34,3.34,0,0,1,.89-1.12,4.44,4.44,0,0,1,1.41-.76,5.71,5.71,0,0,1,1.85-.28,6.18,6.18,0,0,1,1.94.28,4.4,4.4,0,0,1,1.46.78A3.33,3.33,0,0,1,99.76,13H97.17A1.71,1.71,0,0,0,97,12.4a1.62,1.62,0,0,0-.38-.56,1.88,1.88,0,0,0-.63-.39,2.48,2.48,0,0,0-.88-.14,2.67,2.67,0,0,0-.85.12,1.89,1.89,0,0,0-.6.32,1.27,1.27,0,0,0-.36.46,1.33,1.33,0,0,0-.12.55,1.18,1.18,0,0,0,.11.51,1,1,0,0,0,.38.41,3.14,3.14,0,0,0,.73.34,10.77,10.77,0,0,0,1.15.3,13.63,13.63,0,0,1,1.8.5,5.09,5.09,0,0,1,1.34.71,2.84,2.84,0,0,1,.84,1,2.94,2.94,0,0,1,.29,1.34,3,3,0,0,1-.33,1.41,3.25,3.25,0,0,1-.95,1.1,4.58,4.58,0,0,1-1.48.72,6.74,6.74,0,0,1-1.92.26,6,6,0,0,1-2.1-.34,4.78,4.78,0,0,1-1.53-.88,3.66,3.66,0,0,1-.93-1.23,3.34,3.34,0,0,1-.31-1.4h2.52a2,2,0,0,0,.25.9,1.81,1.81,0,0,0,.54.59,2.28,2.28,0,0,0,.75.33,3.56,3.56,0,0,0,.85.1A2.62,2.62,0,0,0,96.76,19,1.21,1.21,0,0,0,97.3,18Z"/><line class="cls-3" x1="30.47" y1="25.3" x2="30.47" y2="2.05"/><g class="cls-4"><g class="cls-5"><rect width="28.74" height="26.92"/></g></g><g class="cls-6"><g class="cls-5"><rect x="14.92" y="8.96" width="10.48" height="10.59"/></g></g></g></g></svg>