<svg xmlns="http://www.w3.org/2000/svg" viewBox="0 0 118.49 23.62"><defs><style>.cls-1{fill:none;stroke:#000;stroke-miterlimit:10;}</style></defs><title>Earnings</title><g id="Layer_2" data-name="Layer 2"><g id="Detail"><path d="M14.51,15.06a3,3,0,0,0-.16-1,2.11,2.11,0,0,0-.55-.81,4.34,4.34,0,0,0-1-.69,13.78,13.78,0,0,0-1.59-.67q-.85-.29-1.53-.59a4.65,4.65,0,0,1-1.15-.72,2.76,2.76,0,0,1-.72-1,3.36,3.36,0,0,1-.25-1.37A3.42,3.42,0,0,1,7.78,6.9a2.86,2.86,0,0,1,.69-1,3.37,3.37,0,0,1,1.09-.68A4.28,4.28,0,0,1,11,4.93V3.26h.49V4.93a4.3,4.3,0,0,1,1.44.31A3,3,0,0,1,14,6a3.34,3.34,0,0,1,.68,1.18,4.91,4.91,0,0,1,.24,1.59h-.48a4.14,4.14,0,0,0-.21-1.34,3,3,0,0,0-.62-1.07,2.82,2.82,0,0,0-1-.71,3.52,3.52,0,0,0-1.39-.26,3.87,3.87,0,0,0-1.42.24,2.92,2.92,0,0,0-1,.63,2.49,2.49,0,0,0-.59.89,2.88,2.88,0,0,0-.19,1,3.61,3.61,0,0,0,.13,1,1.94,1.94,0,0,0,.49.81,3.86,3.86,0,0,0,1,.71,12.12,12.12,0,0,0,1.7.68q.82.29,1.49.59a4.6,4.6,0,0,1,1.15.72,2.94,2.94,0,0,1,.74,1A3.21,3.21,0,0,1,15,15a3.35,3.35,0,0,1-.25,1.31,2.91,2.91,0,0,1-.69,1A3.32,3.32,0,0,1,13,18a4.51,4.51,0,0,1-1.4.29V20h-.49V18.33a5.93,5.93,0,0,1-1.46-.24,3.63,3.63,0,0,1-1.28-.66,3.26,3.26,0,0,1-.9-1.18,4.15,4.15,0,0,1-.34-1.77H7.6a3.49,3.49,0,0,0,.34,1.62,2.94,2.94,0,0,0,.86,1,3.35,3.35,0,0,0,1.19.55,5.27,5.27,0,0,0,1.29.17,3.74,3.74,0,0,0,1.36-.23,3.12,3.12,0,0,0,1-.62,2.67,2.67,0,0,0,.64-.89A2.6,2.6,0,0,0,14.51,15.06Z"/><path d="M11.78,20.19H10.9V18.51a6.15,6.15,0,0,1-1.32-.24,3.84,3.84,0,0,1-1.34-.7,3.47,3.47,0,0,1-1-1.24,4.36,4.36,0,0,1-.36-1.85v-.19H7.8v.19A3.32,3.32,0,0,0,8.11,16a2.76,2.76,0,0,0,.81,1A3.17,3.17,0,0,0,10,17.5a4.32,4.32,0,0,0,2.54-.06,2.94,2.94,0,0,0,1-.58,2.5,2.5,0,0,0,.59-.83,2.42,2.42,0,0,0,.2-1,2.85,2.85,0,0,0-.15-1,1.93,1.93,0,0,0-.5-.74,4.17,4.17,0,0,0-1-.66A13.69,13.69,0,0,0,11.13,12c-.57-.19-1.09-.39-1.54-.6a4.87,4.87,0,0,1-1.2-.75,3,3,0,0,1-.77-1,3.57,3.57,0,0,1-.27-1.45A3.63,3.63,0,0,1,7.6,6.83a3.07,3.07,0,0,1,.74-1.08A3.58,3.58,0,0,1,9.49,5a4.38,4.38,0,0,1,1.31-.28V3.06h.88V4.75A4.39,4.39,0,0,1,13,5.07a3.23,3.23,0,0,1,1.15.8,3.55,3.55,0,0,1,.72,1.25,5.13,5.13,0,0,1,.25,1.65V9h-.87V8.77A4,4,0,0,0,14,7.49a2.86,2.86,0,0,0-.58-1,2.64,2.64,0,0,0-.94-.66,3.34,3.34,0,0,0-1.31-.24,3.7,3.7,0,0,0-1.35.22,2.74,2.74,0,0,0-.93.58,2.31,2.31,0,0,0-.54.83,2.7,2.7,0,0,0-.18,1,3.44,3.44,0,0,0,.12.94,1.76,1.76,0,0,0,.44.73,3.68,3.68,0,0,0,1,.67,12,12,0,0,0,1.67.67c.55.19,1.06.39,1.51.59a4.82,4.82,0,0,1,1.2.75,3.15,3.15,0,0,1,.79,1A3.42,3.42,0,0,1,15.19,15a3.56,3.56,0,0,1-.26,1.39,3.12,3.12,0,0,1-.74,1.07,3.52,3.52,0,0,1-1.14.71,4.62,4.62,0,0,1-1.27.29Zm-.49-.39h.11V18.14h.18a4.34,4.34,0,0,0,1.34-.28,3.14,3.14,0,0,0,1-.63,2.73,2.73,0,0,0,.65-.94A3.18,3.18,0,0,0,14.8,15a3,3,0,0,0-.25-1.29,2.76,2.76,0,0,0-.69-.92,4.44,4.44,0,0,0-1.1-.69c-.44-.2-.94-.39-1.48-.58a12.33,12.33,0,0,1-1.72-.7,4.06,4.06,0,0,1-1.06-.75A2.14,2.14,0,0,1,8,9.23a3.82,3.82,0,0,1-.13-1A3.09,3.09,0,0,1,8,7.09a2.7,2.7,0,0,1,.63-1,3.12,3.12,0,0,1,1.06-.67,4.07,4.07,0,0,1,1.49-.25,3.73,3.73,0,0,1,1.46.27,3,3,0,0,1,1.07.76,3.24,3.24,0,0,1,.66,1.14,4.26,4.26,0,0,1,.22,1.21h.1a4.57,4.57,0,0,0-.22-1.33,3.17,3.17,0,0,0-.64-1.11,2.85,2.85,0,0,0-1-.71,4.13,4.13,0,0,0-1.38-.3h-.18V3.45h-.11V5.12H11a4.1,4.1,0,0,0-1.37.26,3.2,3.2,0,0,0-1,.64A2.68,2.68,0,0,0,8,7a3.24,3.24,0,0,0-.23,1.23A3.18,3.18,0,0,0,8,9.5a2.59,2.59,0,0,0,.67.91,4.49,4.49,0,0,0,1.1.69c.44.2.95.4,1.51.58a14.06,14.06,0,0,1,1.61.68,4.56,4.56,0,0,1,1.07.73,2.31,2.31,0,0,1,.59.89,3.24,3.24,0,0,1,.17,1.09,2.8,2.8,0,0,1-.24,1.12,2.88,2.88,0,0,1-.68,1,3.33,3.33,0,0,1-1.08.66,4.7,4.7,0,0,1-2.77.07,3.57,3.57,0,0,1-1.25-.59,3.14,3.14,0,0,1-.92-1.1,3.55,3.55,0,0,1-.35-1.51h-.1a3.82,3.82,0,0,0,.32,1.5,3.08,3.08,0,0,0,.85,1.11,3.45,3.45,0,0,0,1.21.63,5.76,5.76,0,0,0,1.41.23h.19Z"/><path d="M14.64,21.89H.19V7.37A6.39,6.39,0,0,1,6.57,1H22.12V14.4A7.5,7.5,0,0,1,14.64,21.89ZM.71,21.38H14.64a7,7,0,0,0,7-7V1.5h-15A5.87,5.87,0,0,0,.71,7.37Z"/><path d="M14.64,22.08H0V7.37A6.58,6.58,0,0,1,6.57.79H22.32V14.4A7.69,7.69,0,0,1,14.64,22.08ZM.39,21.7H14.64a7.3,7.3,0,0,0,7.3-7.3V1.18H6.57A6.19,6.19,0,0,0,.39,7.37Zm14.25-.13H.51V7.37A6.07,6.07,0,0,1,6.57,1.31H21.8V14.4A7.18,7.18,0,0,1,14.64,21.57ZM.9,21.18H14.64a6.79,6.79,0,0,0,6.78-6.78V1.69H6.57A5.68,5.68,0,0,0,.9,7.37Z"/><path d="M44.63,12.13H38.24v4.78H45.7v2.16H35.54V3.53H45.63V5.71H38.24V10h6.38Z"/><path d="M54.55,19.07a2.11,2.11,0,0,1-.18-.48c0-.18-.09-.38-.12-.6a4.69,4.69,0,0,1-.57.5,4,4,0,0,1-.69.41,4.17,4.17,0,0,1-1.77.38A4.67,4.67,0,0,1,49.63,19a3.75,3.75,0,0,1-1.24-.73,3.38,3.38,0,0,1-.81-1.09,3.2,3.2,0,0,1-.29-1.37,3.67,3.67,0,0,1,.35-1.64,3.18,3.18,0,0,1,1-1.2,4.91,4.91,0,0,1,1.65-.73A9,9,0,0,1,52.54,12h1.63v-.76a2,2,0,0,0-.5-1.44,2,2,0,0,0-1.53-.54,2.68,2.68,0,0,0-.83.12,2,2,0,0,0-.63.33,1.47,1.47,0,0,0-.41.5,1.37,1.37,0,0,0-.14.62H47.53a2.77,2.77,0,0,1,.34-1.32,3.61,3.61,0,0,1,1-1.13,4.89,4.89,0,0,1,1.5-.8,6.59,6.59,0,0,1,3.76,0,4,4,0,0,1,1.42.75,3.37,3.37,0,0,1,.93,1.24,4.23,4.23,0,0,1,.33,1.74V16.4a5.92,5.92,0,0,0,.44,2.49v.18ZM51.7,17.21a2.9,2.9,0,0,0,.84-.12,3,3,0,0,0,.7-.31,2.6,2.6,0,0,0,.55-.44,2.48,2.48,0,0,0,.37-.51V13.65h-1.4a3.83,3.83,0,0,0-2.17.5,1.63,1.63,0,0,0-.73,1.42,1.75,1.75,0,0,0,.12.65,1.39,1.39,0,0,0,.35.52,1.64,1.64,0,0,0,.57.34A2.28,2.28,0,0,0,51.7,17.21Z"/><path d="M65.53,9.89,65,9.83l-.54,0a2.87,2.87,0,0,0-1.53.36,2.22,2.22,0,0,0-.87,1v7.9H59.47V7.52H62L62,8.81A3.36,3.36,0,0,1,63.1,7.71a2.83,2.83,0,0,1,1.52-.4,3.14,3.14,0,0,1,.51,0,2.12,2.12,0,0,1,.41.1Z"/><path d="M69.57,7.52l.08,1.33a4.22,4.22,0,0,1,1.46-1.14A4.37,4.37,0,0,1,73,7.31a4.71,4.71,0,0,1,1.51.23,2.79,2.79,0,0,1,1.16.74,3.45,3.45,0,0,1,.74,1.33,6.65,6.65,0,0,1,.26,2v7.46H74.09V11.59a3.3,3.3,0,0,0-.13-1,1.65,1.65,0,0,0-.39-.67,1.48,1.48,0,0,0-.64-.37,3.1,3.1,0,0,0-.87-.11,2.5,2.5,0,0,0-1.39.38,2.8,2.8,0,0,0-.95,1v8.22H67.13V7.52Z"/><path d="M79.33,4.52a1.38,1.38,0,0,1,.38-1,1.43,1.43,0,0,1,1.08-.39,1.45,1.45,0,0,1,1.09.39,1.37,1.37,0,0,1,.38,1,1.33,1.33,0,0,1-.38,1,1.46,1.46,0,0,1-1.09.39,1.44,1.44,0,0,1-1.08-.39A1.34,1.34,0,0,1,79.33,4.52Zm2.75,14.55H79.49V7.52h2.59Z"/><path d="M87.32,7.52l.08,1.33a4.22,4.22,0,0,1,1.46-1.14,4.37,4.37,0,0,1,1.9-.41,4.71,4.71,0,0,1,1.51.23,2.79,2.79,0,0,1,1.16.74,3.45,3.45,0,0,1,.74,1.33,6.65,6.65,0,0,1,.26,2v7.46H91.83V11.59a3.3,3.3,0,0,0-.13-1,1.65,1.65,0,0,0-.39-.67,1.48,1.48,0,0,0-.64-.37,3.1,3.1,0,0,0-.87-.11,2.5,2.5,0,0,0-1.39.38,2.8,2.8,0,0,0-.95,1v8.22H84.87V7.52Z"/><path d="M96.61,13.21a8.51,8.51,0,0,1,.32-2.4,5.59,5.59,0,0,1,.92-1.87A4.43,4.43,0,0,1,103,7.67a3.75,3.75,0,0,1,1.3,1l.12-1.16h2.34V18.75a5.28,5.28,0,0,1-.38,2.07,4.26,4.26,0,0,1-1.07,1.53,4.66,4.66,0,0,1-1.65.94,6.58,6.58,0,0,1-2.12.33,6.34,6.34,0,0,1-1.07-.1,6.25,6.25,0,0,1-1.19-.33,5.83,5.83,0,0,1-1.14-.59,3.68,3.68,0,0,1-.93-.89l1.23-1.56a3.9,3.9,0,0,0,1.39,1.09,3.82,3.82,0,0,0,1.55.33,2.87,2.87,0,0,0,2-.7,2.68,2.68,0,0,0,.75-2.05V18a3.67,3.67,0,0,1-1.28.93,4.26,4.26,0,0,1-1.71.32,4.06,4.06,0,0,1-1.91-.44,4.38,4.38,0,0,1-1.45-1.22,5.62,5.62,0,0,1-.92-1.85,8.15,8.15,0,0,1-.32-2.33Zm2.58.22a6.52,6.52,0,0,0,.15,1.45,3.69,3.69,0,0,0,.49,1.19,2.48,2.48,0,0,0,.83.81,2.36,2.36,0,0,0,1.21.29,2.55,2.55,0,0,0,1.43-.37,2.79,2.79,0,0,0,.9-1V10.75a2.64,2.64,0,0,0-.9-1,2.59,2.59,0,0,0-1.4-.35,2.38,2.38,0,0,0-1.22.3,2.44,2.44,0,0,0-.84.81,3.83,3.83,0,0,0-.49,1.2,6.49,6.49,0,0,0-.16,1.47Z"/><path d="M115.94,15.93a1.45,1.45,0,0,0-.09-.52,1.06,1.06,0,0,0-.36-.45,2.87,2.87,0,0,0-.75-.39,8.67,8.67,0,0,0-1.26-.34,11.2,11.2,0,0,1-1.69-.48,5.22,5.22,0,0,1-1.31-.7,3,3,0,0,1-.85-1,2.62,2.62,0,0,1-.3-1.28,3,3,0,0,1,.31-1.34,3.34,3.34,0,0,1,.89-1.12,4.44,4.44,0,0,1,1.41-.76,5.71,5.71,0,0,1,1.85-.28,6.18,6.18,0,0,1,1.94.28,4.4,4.4,0,0,1,1.46.78A3.33,3.33,0,0,1,118.4,11h-2.59a1.71,1.71,0,0,0-.13-.65,1.62,1.62,0,0,0-.38-.56,1.88,1.88,0,0,0-.63-.39,2.48,2.48,0,0,0-.88-.14,2.67,2.67,0,0,0-.85.12,1.89,1.89,0,0,0-.6.32,1.27,1.27,0,0,0-.36.46,1.33,1.33,0,0,0-.12.55,1.18,1.18,0,0,0,.11.51,1,1,0,0,0,.38.41,3.14,3.14,0,0,0,.73.34,10.77,10.77,0,0,0,1.15.3,13.63,13.63,0,0,1,1.8.5,5.09,5.09,0,0,1,1.34.71,2.84,2.84,0,0,1,.84,1,2.94,2.94,0,0,1,.29,1.34,3,3,0,0,1-.33,1.41,3.25,3.25,0,0,1-.95,1.1,4.58,4.58,0,0,1-1.48.72,6.74,6.74,0,0,1-1.92.26,6,6,0,0,1-2.1-.34,4.78,4.78,0,0,1-1.53-.88,3.66,3.66,0,0,1-.93-1.23,3.34,3.34,0,0,1-.31-1.4h2.52a2,2,0,0,0,.25.9,1.81,1.81,0,0,0,.54.59,2.28,2.28,0,0,0,.75.33,3.56,3.56,0,0,0,.85.1A2.62,2.62,0,0,0,115.4,17,1.21,1.21,0,0,0,115.94,15.93Z"/><line class="cls-1" x1="27.46" y1="23.25" x2="27.46"/></g></g></svg>