<svg xmlns="http://www.w3.org/2000/svg" viewBox="0 0 112.3 23.81"><defs><style>.cls-1,.cls-2{fill:none;stroke:#000;stroke-miterlimit:10;}.cls-1{stroke-width:0.75px;}</style></defs><title>Reserve</title><g id="Layer_2" data-name="Layer 2"><g id="Detail"><circle class="cls-1" cx="10.92" cy="11.44" r="10.54"/><circle class="cls-1" cx="10.92" cy="11.44" r="7.38"/><circle class="cls-1" cx="10.92" cy="11.44" r="3.99"/><line class="cls-1" x1="11.07" y1="11.29" x2="11.07" y2="23.81"/><path d="M41.6,13.08h-3v6h-2.7V3.53h5.47a8.53,8.53,0,0,1,2.38.3,4.91,4.91,0,0,1,1.77.9A3.81,3.81,0,0,1,46.59,6.2a5.13,5.13,0,0,1,.37,2,4.37,4.37,0,0,1-.75,2.61,4.78,4.78,0,0,1-2.1,1.62l3.49,6.48v.14H44.71Zm-3-2.17h2.78a3.8,3.8,0,0,0,1.27-.19,2.54,2.54,0,0,0,.91-.53,2.17,2.17,0,0,0,.54-.81,2.85,2.85,0,0,0,.18-1,3.24,3.24,0,0,0-.17-1.08,2.16,2.16,0,0,0-.52-.83,2.34,2.34,0,0,0-.9-.53,4.1,4.1,0,0,0-1.32-.19H38.59Z"/><path d="M54.36,19.29a5.93,5.93,0,0,1-2.31-.43,5.06,5.06,0,0,1-1.74-1.17,5.12,5.12,0,0,1-1.1-1.77,6.25,6.25,0,0,1-.38-2.21v-.43a7.13,7.13,0,0,1,.41-2.47,5.65,5.65,0,0,1,1.11-1.88A4.89,4.89,0,0,1,52,7.73a5,5,0,0,1,2.05-.42,5.25,5.25,0,0,1,2.19.42,4.13,4.13,0,0,1,1.54,1.18,5.08,5.08,0,0,1,.91,1.8A8.34,8.34,0,0,1,59,13v1.11H51.45a4.12,4.12,0,0,0,.28,1.24,3,3,0,0,0,.63,1,2.85,2.85,0,0,0,.93.65,3,3,0,0,0,1.22.24,3.45,3.45,0,0,0,1.67-.38,3.92,3.92,0,0,0,1.23-1.06l1.4,1.33a4.71,4.71,0,0,1-.69.81,4.64,4.64,0,0,1-1,.69,5.5,5.5,0,0,1-1.24.49A6,6,0,0,1,54.36,19.29Zm-.31-9.9a2.19,2.19,0,0,0-1.72.75,3.88,3.88,0,0,0-.84,2.08h4.94V12a4.74,4.74,0,0,0-.17-1,2.52,2.52,0,0,0-.41-.84,2,2,0,0,0-.72-.59A2.44,2.44,0,0,0,54.05,9.39Z"/><path d="M67.48,15.93a1.45,1.45,0,0,0-.09-.52A1.06,1.06,0,0,0,67,15a2.87,2.87,0,0,0-.75-.39A8.67,8.67,0,0,0,65,14.24a11.2,11.2,0,0,1-1.69-.48,5.22,5.22,0,0,1-1.31-.7,3,3,0,0,1-.85-1,2.62,2.62,0,0,1-.3-1.28,3,3,0,0,1,.31-1.34,3.34,3.34,0,0,1,.89-1.12,4.44,4.44,0,0,1,1.41-.76,5.71,5.71,0,0,1,1.85-.28,6.18,6.18,0,0,1,1.94.28,4.4,4.4,0,0,1,1.46.78A3.33,3.33,0,0,1,69.95,11H67.36a1.71,1.71,0,0,0-.13-.65,1.62,1.62,0,0,0-.38-.56,1.88,1.88,0,0,0-.63-.39,2.48,2.48,0,0,0-.88-.14,2.67,2.67,0,0,0-.85.12,1.89,1.89,0,0,0-.6.32,1.27,1.27,0,0,0-.36.46,1.33,1.33,0,0,0-.12.55,1.18,1.18,0,0,0,.11.51,1,1,0,0,0,.38.41,3.14,3.14,0,0,0,.73.34,10.77,10.77,0,0,0,1.15.3,13.63,13.63,0,0,1,1.8.5,5.09,5.09,0,0,1,1.34.71,2.84,2.84,0,0,1,.84,1A2.94,2.94,0,0,1,70,15.8a3,3,0,0,1-.33,1.41,3.25,3.25,0,0,1-.95,1.1,4.58,4.58,0,0,1-1.48.72,6.74,6.74,0,0,1-1.92.26,6,6,0,0,1-2.1-.34,4.78,4.78,0,0,1-1.53-.88,3.66,3.66,0,0,1-.93-1.23,3.34,3.34,0,0,1-.31-1.4H63a2,2,0,0,0,.25.9,1.81,1.81,0,0,0,.54.59,2.28,2.28,0,0,0,.75.33,3.56,3.56,0,0,0,.85.1A2.62,2.62,0,0,0,66.95,17,1.21,1.21,0,0,0,67.48,15.93Z"/><path d="M77.38,19.29a5.93,5.93,0,0,1-2.31-.43,5.06,5.06,0,0,1-1.74-1.17,5.12,5.12,0,0,1-1.1-1.77,6.25,6.25,0,0,1-.38-2.21v-.43a7.13,7.13,0,0,1,.41-2.47,5.65,5.65,0,0,1,1.11-1.88A4.89,4.89,0,0,1,75,7.73a5,5,0,0,1,2.05-.42,5.25,5.25,0,0,1,2.19.42,4.13,4.13,0,0,1,1.54,1.18,5.08,5.08,0,0,1,.91,1.8A8.34,8.34,0,0,1,82,13v1.11H74.47a4.12,4.12,0,0,0,.28,1.24,3,3,0,0,0,.63,1,2.85,2.85,0,0,0,.93.65,3,3,0,0,0,1.22.24,3.45,3.45,0,0,0,1.67-.38,3.92,3.92,0,0,0,1.23-1.06l1.4,1.33a4.71,4.71,0,0,1-.69.81,4.64,4.64,0,0,1-1,.69,5.5,5.5,0,0,1-1.24.49A6,6,0,0,1,77.38,19.29Zm-.31-9.9a2.19,2.19,0,0,0-1.72.75,3.88,3.88,0,0,0-.84,2.08h4.94V12a4.74,4.74,0,0,0-.17-1,2.52,2.52,0,0,0-.41-.84,2,2,0,0,0-.72-.59A2.44,2.44,0,0,0,77.07,9.39Z"/><path d="M90.07,9.89l-.52-.06-.54,0a2.87,2.87,0,0,0-1.53.36,2.22,2.22,0,0,0-.87,1v7.9H84V7.52H86.5l.06,1.29a3.36,3.36,0,0,1,1.08-1.11,2.83,2.83,0,0,1,1.52-.4,3.14,3.14,0,0,1,.51,0,2.12,2.12,0,0,1,.41.1Z"/><path d="M96,15.79l2.45-8.26h2.68l-4,11.55H94.85l-4-11.55H93.5Z"/><path d="M107.67,19.29a5.93,5.93,0,0,1-2.31-.43,5.06,5.06,0,0,1-1.74-1.17,5.12,5.12,0,0,1-1.1-1.77,6.25,6.25,0,0,1-.38-2.21v-.43a7.13,7.13,0,0,1,.41-2.47,5.65,5.65,0,0,1,1.11-1.88,4.89,4.89,0,0,1,1.66-1.2,5,5,0,0,1,2.05-.42,5.25,5.25,0,0,1,2.19.42,4.13,4.13,0,0,1,1.54,1.18,5.08,5.08,0,0,1,.91,1.8,8.34,8.34,0,0,1,.3,2.3v1.11h-7.55a4.12,4.12,0,0,0,.28,1.24,3,3,0,0,0,.63,1,2.85,2.85,0,0,0,.93.65,3,3,0,0,0,1.22.24,3.45,3.45,0,0,0,1.67-.38,3.92,3.92,0,0,0,1.23-1.06l1.4,1.33a4.71,4.71,0,0,1-.69.81,4.64,4.64,0,0,1-1,.69,5.5,5.5,0,0,1-1.24.49A6,6,0,0,1,107.67,19.29Zm-.31-9.9a2.19,2.19,0,0,0-1.72.75,3.88,3.88,0,0,0-.84,2.08h4.94V12a4.74,4.74,0,0,0-.17-1,2.52,2.52,0,0,0-.41-.84,2,2,0,0,0-.72-.59A2.44,2.44,0,0,0,107.36,9.39Z"/><line class="cls-2" x1="27.8" y1="23.25" x2="27.8"/></g></g></svg>