<svg xmlns="http://www.w3.org/2000/svg" viewBox="0 0 185.08 200"><defs><style>.cls-1{fill:#fff;}</style></defs><title>Goal Selection White</title><g id="Detail"><circle cx="91.82" cy="102" r="89"/><path class="cls-1" d="M153.69,163.61a.89.89,0,0,0,.08-.13,86.63,86.63,0,0,0,25.64-61.71c0-23.34-9.17-45.63-25.17-61.23a.89.89,0,0,0-.72-.71c-8.8-8.79-18.13-15.1-27.75-18.75l-.05,0a92.74,92.74,0,0,0-33.64-6.71C80.5,14.35,69.26,17,58.68,21h0v0A87.3,87.3,0,0,0,30.5,163.59a86.55,86.55,0,0,0,61.58,25.18c11.5,0,22.67-1.77,33.18-6.77h0v.23a86.42,86.42,0,0,0,28.28-18.64S153.65,163.65,153.69,163.61Zm-.74-2.16-5.55-5.55a78.94,78.94,0,0,0,16-24.1,77,77,0,0,0,6.13-30.12c0-11.41-3.16-22.09-5.53-29.13a1,1,0,0,0-1.11-.67h0a1,1,0,0,0-.5.05l-19,7.82a56.18,56.18,0,0,0-29.89-29.48A55.35,55.35,0,0,0,92.08,46c-8.47,0-15.46,1.34-21.37,4.09l-.05,0a60,60,0,0,0-18.2,12.27l.71.7-.79-.63-.09.11a55.3,55.3,0,0,0-11.42,17l-8.36-3.48a65.9,65.9,0,0,1,13.68-20A64.43,64.43,0,0,1,67.32,41.91a1,1,0,0,0,.14-.1,1,1,0,0,0,.17-.11,1,1,0,0,0,.11-.16.56.56,0,0,0,.15-.35,1,1,0,0,0,0-.18,1,1,0,0,0,0-.2,1,1,0,0,0,0-.18l-.06-.16a1,1,0,0,0-1.29-.59,1,1,0,0,0-.47.39A66.4,66.4,0,0,0,44.78,54.7,67.85,67.85,0,0,0,30.55,75.63a1,1,0,0,0-.37.31,1,1,0,0,0,.26,1.39l.36.24.14.07,9.9,4.12a1,1,0,0,0,.35.15L51.1,86A43.33,43.33,0,0,0,48,101.67V102a43.2,43.2,0,0,0,3.61,16.61,43.78,43.78,0,0,0,9.67,14.1,1,1,0,0,0,1.43,0,1,1,0,0,0,0-1.41,41.85,41.85,0,0,1-9.25-13.45A41.21,41.21,0,0,1,50,102v-.33a41.49,41.49,0,0,1,3.15-15.42,1.22,1.22,0,0,0,.32-.39h0a41.25,41.25,0,0,1,9.28-13.48l.08-.09c3.47-3.47,7.74-7.27,13-9.31L76,63l.09,0a43.11,43.11,0,0,1,16-2.93,1,1,0,1,0,0-2,45.11,45.11,0,0,0-16.67,3h0l-.15.06C69.47,63.33,64.8,67.54,61.38,71L61.3,71A43.59,43.59,0,0,0,52,84.25l-9.31-3.87A53.29,53.29,0,0,1,53.79,63.89l.08-.09h0A58.16,58.16,0,0,1,71.46,51.95l.1,0C77.2,49.28,83.91,48,92.1,48a53.34,53.34,0,0,1,20.66,4.11A54.27,54.27,0,0,1,142,81.4s0,.06,0,.09A53.24,53.24,0,0,1,146,101.67V102a47.73,47.73,0,0,1-.23,5s0,.09,0,.14a51,51,0,0,1-1.25,7c-.07.26-.11.52-.18.78s-.13.43-.19.65a57.62,57.62,0,0,1-2.49,7.09l0,.08A53.72,53.72,0,0,1,130.56,139L123.48,132a44.34,44.34,0,0,0,8.87-13,1,1,0,1,0-1.83-.8,42.57,42.57,0,0,1-9.13,13.09l-.07.08a42.16,42.16,0,0,1-13.45,8.88,41.74,41.74,0,0,1-30.71.31L80.27,133a34,34,0,0,0,11.82,2,48.9,48.9,0,0,0,12.53-2l.14,0,.16-.06a41.67,41.67,0,0,0,10.8-7.2A34.3,34.3,0,0,0,123,115.33a33.11,33.11,0,0,0,3-12.33h9a.93.93,0,0,0,.92-1v-.33a44.13,44.13,0,0,0-27-40.29l-.08,0a1,1,0,0,0-1.33.94,1,1,0,0,0,.69,1A42.17,42.17,0,0,1,134.07,101h-8a32.52,32.52,0,0,0-2.4-11.44l0-.06a34.23,34.23,0,0,0-18.47-18.87l-.07,0a33.8,33.8,0,0,0-26,0,1,1,0,1,0,.77,1.84,31.8,31.8,0,0,1,24.47,0l.07,0a32,32,0,0,1,10.27,7,31.6,31.6,0,0,1,7.06,10.76s0,0,0,.07A31.62,31.62,0,0,1,124,101.67V102a30.64,30.64,0,0,1-2.88,12.57,32.11,32.11,0,0,1-6.84,9.68,38.19,38.19,0,0,1-10,6.69.56.56,0,0,0-.42.16A46.5,46.5,0,0,1,92.06,133a31.39,31.39,0,0,1-11.89-2.14H80.1a.89.89,0,0,0-.47-.11A32,32,0,0,1,62.75,114c-.43-1-.83-2-1.13-2.86A29,29,0,0,1,60,102v-.33a32.18,32.18,0,0,1,9.51-22.23A1,1,0,1,0,68.11,78,34.08,34.08,0,0,0,58,101.67v.13c0,.07,0,.13,0,.2a30.88,30.88,0,0,0,1.66,9.78c.06.16.13.33.2.49a2.38,2.38,0,0,1,.22.68,2.82,2.82,0,0,0,.53,1.46,3.06,3.06,0,0,1,.22.39,34.68,34.68,0,0,0,17.53,17.61l-3.41,8.23s0,0,0,.06l0,0s0,.05,0,.08a1.16,1.16,0,0,0,0,.72,1,1,0,0,0,.07.1,1,1,0,0,0,.45.4,43.81,43.81,0,0,0,33.17.05,44,44,0,0,0,13.44-8.69l7.09,7.06c-1.05,1-2.13,2-3.25,2.89a54.78,54.78,0,0,1-10.41,6.5c-1.07.53-2.49.86-3.49,1.32V151h.42a45.7,45.7,0,0,1-19.61,4.15s0,.07,0,.06-.1,0-.15-.08a.65.65,0,0,0-.18-.07,1,1,0,0,0-1.09.22v0a53.78,53.78,0,0,1-53-53.31,1,1,0,0,0-1-1h0l-.14,0-.14,0h-20a74.28,74.28,0,0,1,5.45-27.94l0-.09A74.67,74.67,0,0,1,63.21,32.05,73,73,0,0,1,91,26.35V36a1,1,0,0,0,1,1,64.39,64.39,0,0,1,24.45,4.78,1,1,0,0,0,.27.18,1,1,0,0,0,.4,0A65.06,65.06,0,0,1,138,56h0v.11c0,.07.14.11.22.15s.06.05.09.07a1,1,0,0,0,.75,0s-.13,0-.1-.07,0-.08,0-.15V56h.39l13.79-13.74c15.4,15.2,24.23,36.84,24.23,59.48A84.67,84.67,0,0,1,152.95,161.45Zm-27.53,18.76L122,171.94s0,0,0,0l0,0-4-9.82-.15-.36,0,0s0,0,0,0a.94.94,0,0,0-.1-.12,1,1,0,0,0-.13-.16,1,1,0,0,0-.15-.1,1,1,0,0,0-.18-.1l-.17,0a1,1,0,0,0-.2,0,1,1,0,0,0-.19,0,.93.93,0,0,0-.16,0l0,0h0c-6.45,3.33-14,4.82-24.33,4.82a64,64,0,0,1-24.57-4.67,1,1,0,1,0-.76,1.85A66.08,66.08,0,0,0,92.08,168c10.19,0,17.72-1.41,24.25-4.56l3.41,8.26a75.08,75.08,0,0,1-56.27-.51s0-.19,0-.19h0c-8.77-3-16.7-8.6-23.61-15.32l13.79-13.79a55.68,55.68,0,0,0,59.57,11.3q1.25-.51,2.46-1.08l.71-.35c.56-.27,1.13-.55,1.68-.84l.85-.47c.5-.27,1-.54,1.49-.83l.88-.54c.46-.28.93-.57,1.38-.87l.88-.6c.44-.3.88-.6,1.31-.91l.87-.66c.42-.32.84-.64,1.25-1l.86-.71c.4-.33.79-.67,1.18-1l.85-.78c.24-.22.48-.43.72-.66l6.58,6.58,0,.05a1,1,0,0,0,.07.19v0a1,1,0,0,0,.59.48,1,1,0,0,0,.27,0,1,1,0,0,0,.71-.31h0l0,0,.06-.06,0,0a.78.78,0,0,0,.18-.31,67.28,67.28,0,0,0,14.18-20.44,1,1,0,0,0,.38-.41.81.81,0,0,0,.06-.24A65.46,65.46,0,0,0,159,102v-.33a66.2,66.2,0,0,0-4.69-24.26l8.1-3.33c2.29,6.9,5.14,16.94,5.14,27.59a75.05,75.05,0,0,1-6,29.35,77,77,0,0,1-16.4,24.28,1,1,0,0,0,.43,1.67l5.9,5.9A84.7,84.7,0,0,1,125.42,180.21Zm18-56.72s0,0,0-.07A54.26,54.26,0,0,0,148,102v-.33a55,55,0,0,0-3.87-20.06l8.31-3.43a64.24,64.24,0,0,1,4.56,23.5V102a63.39,63.39,0,0,1-5,24.45.91.91,0,0,0-.16.14,1,1,0,0,0-.2.32,64.82,64.82,0,0,1-13.4,19.67L132,140.44A55.77,55.77,0,0,0,143.46,123.49ZM120.32,31.84a1.11,1.11,0,0,0,.22.14,1.06,1.06,0,0,0,.42.09,1,1,0,0,0,.92-.58l0,0,0,0s0,0,0,0l3.73-8.18c9,3.54,17.78,9.49,26.09,17.71L138.67,54a66.46,66.46,0,0,0-21-13.9l0,.06-.09-.06h0l0,0A68.36,68.36,0,0,0,93,35V26.35A76.63,76.63,0,0,1,120.32,31.84Zm3.48-9.36-3.32,7.26a76.53,76.53,0,0,0-27.66-5.4,1,1,0,0,0-1.49,0,76.69,76.69,0,0,0-27.92,5.5l-3-7.39a84.58,84.58,0,0,1,31.72-6.12A90.19,90.19,0,0,1,123.8,22.48ZM13.17,69.16A85.44,85.44,0,0,1,58.52,23.22l3,7.39A76.43,76.43,0,0,0,20.75,72.17s-.09.1-.11.16A76.72,76.72,0,0,0,15,101.67V102a1.07,1.07,0,0,0,1.08,1h9a65.53,65.53,0,0,0,4.82,23.54l-17,7a85.45,85.45,0,0,1,.23-64.4Zm18.74,93a85,85,0,0,1-18.2-26.77l17.8-7.35,0,0a1,1,0,0,0,.25-.17l.05,0a1,1,0,0,0,.19-.28l0-.07a1,1,0,0,0,0-.14.93.93,0,0,0,.07-.35,1,1,0,0,0-.08-.38,63.77,63.77,0,0,1-5-23.6h9.28a55.74,55.74,0,0,0,15.8,37.48L37.61,155.06a1,1,0,0,0-.09.14,1,1,0,0,0-.11.17,1,1,0,0,0,0,.19.57.57,0,0,0,0,.37,1,1,0,0,0,0,.19,1,1,0,0,0,.1.17.94.94,0,0,0,.09.15l.07.08a76.71,76.71,0,0,0,25,16.68l0,0h0a77.27,77.27,0,0,0,57.79.36l3.05,7.4a85.31,85.31,0,0,1-91.66-18.8Z"/><path class="cls-1" d="M75.85,99H80v18a1.07,1.07,0,0,0,1.08,1h23a.93.93,0,0,0,.92-1V99h4.32c.4,0,.77-.48.92-.85a1.2,1.2,0,0,0-.22-1.21L93.29,80.15a1,1,0,0,0-1.41,0L75.14,96.84a1.4,1.4,0,0,0-.22,1.32C75.08,98.53,75.45,99,75.85,99ZM95,116V106h3v10Zm8,0h-3V104.83c0-.55.08-.83-.48-.83H93.89a.78.78,0,0,0-.89.83V116H82V99h21ZM92.58,82.68,106.9,97H78.26Z"/><path class="cls-1" d="M91,101a1,1,0,0,0-1-1H84a1,1,0,0,0-1,1v7a1,1,0,0,0,1,1h6a1,1,0,0,0,1-1Zm-6,1h5v5H85Z"/></g></svg>