<svg xmlns="http://www.w3.org/2000/svg" xmlns:xlink="http://www.w3.org/1999/xlink" viewBox="0 0 171.74 29.91"><defs><style>.cls-1,.cls-2,.cls-7{fill:none;}.cls-1{clip-rule:evenodd;}.cls-3{clip-path:url(#clip-path);}.cls-4{clip-path:url(#clip-path-2);}.cls-5{clip-path:url(#clip-path-3);}.cls-6{clip-path:url(#clip-path-4);}.cls-7{stroke:#000;stroke-miterlimit:10;}.cls-8{clip-path:url(#clip-path-6);}.cls-9{clip-path:url(#clip-path-8);}.cls-10{clip-path:url(#clip-path-10);}.cls-11{clip-path:url(#clip-path-12);}</style><clipPath id="clip-path"><polygon class="cls-1" points="11.53 26.56 19.7 26.56 19.7 25.75 3.35 25.75 3.35 26.56 11.53 26.56"/></clipPath><clipPath id="clip-path-2"><rect class="cls-2" x="-25.5" y="-261.68" width="251.61" height="566.3"/></clipPath><clipPath id="clip-path-3"><rect class="cls-2" x="3.35" y="25.5" width="16.77" height="1.34"/></clipPath><clipPath id="clip-path-4"><path class="cls-1" d="M19.3,26.56H3.75a.4.4,0,0,1,0-.81H19.3a.4.4,0,0,1,0,.81"/></clipPath><clipPath id="clip-path-6"><path class="cls-1" d="M5.1,25.36A.38.38,0,0,1,4.72,25a15.35,15.35,0,0,1-.18-3.4A8.09,8.09,0,0,1,6.79,16a.39.39,0,0,1,.55,0,.41.41,0,0,1,0,.57c-2.47,2.24-2,6.75-1.87,8l11.43,0a12.61,12.61,0,0,0-.29-5.39,5.48,5.48,0,0,0-2.38-3.25,7.09,7.09,0,0,0-3.06-.73,9.92,9.92,0,0,1-2.71-.5C6.3,13.87,4.94,11.93,4.6,9.21c0-.17-.06-1.12-.07-2,0-2,.16-2.17.26-2.3a.44.44,0,0,1,.34-.16h12a.4.4,0,0,1,.38.32,14.44,14.44,0,0,1,.23,3.38A7.43,7.43,0,0,1,15.44,14a.39.39,0,0,1-.55-.06.41.41,0,0,1,.06-.57c2.58-2.12,2.09-6.59,1.89-7.82H5.39a26.58,26.58,0,0,0,0,3.58,5.63,5.63,0,0,0,3.32,4.81,9.2,9.2,0,0,0,2.5.45,7.78,7.78,0,0,1,3.38.83,6.27,6.27,0,0,1,2.75,3.72,13.67,13.67,0,0,1,.26,6.1.38.38,0,0,1-.39.32H5.1Z"/></clipPath><clipPath id="clip-path-8"><path class="cls-1" d="M18.27,4.16H4a.4.4,0,0,1,0-.81H18.27a.4.4,0,0,1,0,.81"/></clipPath><clipPath id="clip-path-10"><path class="cls-1" d="M11.28,13.53A5.32,5.32,0,0,1,6,8.14a.4.4,0,0,1,.39-.4h9.69a.4.4,0,0,1,.39.4A5.32,5.32,0,0,1,11.28,13.53Zm-4.44-5a4.51,4.51,0,0,0,4.44,4.18,4.51,4.51,0,0,0,4.44-4.18Z"/></clipPath><clipPath id="clip-path-12"><path class="cls-1" d="M6.94,23.74a.39.39,0,0,1-.36-.24.41.41,0,0,1,.08-.44l4.4-4.67a.36.36,0,0,1,.28-.1h0a.37.37,0,0,1,.28.1L16,22.95a.4.4,0,0,1,.08.43.39.39,0,0,1-.36.25l-8.79.11Zm4.4-4.52-3.46,3.7,6.93-.09Z"/></clipPath></defs><title>Commitments</title><g id="Layer_2" data-name="Layer 2"><g id="Detail"><g class="cls-3"><g class="cls-4"><g class="cls-5"><g class="cls-6"><g class="cls-5"><rect y="22.39" width="23.05" height="7.52"/></g></g></g></g></g><path d="M47,18.09a6.71,6.71,0,0,1-.53,2.11,5,5,0,0,1-1.18,1.67A5.34,5.34,0,0,1,43.45,23a7.41,7.41,0,0,1-2.52.4,6.27,6.27,0,0,1-2.59-.52,5.53,5.53,0,0,1-2-1.47,6.65,6.65,0,0,1-1.25-2.31,9.87,9.87,0,0,1-.44-3V14.76a9.67,9.67,0,0,1,.45-3A6.7,6.7,0,0,1,36.4,9.4a5.67,5.67,0,0,1,2-1.48,6.45,6.45,0,0,1,2.64-.52,6.94,6.94,0,0,1,2.46.4,5.23,5.23,0,0,1,1.81,1.11,5.09,5.09,0,0,1,1.16,1.69A7.25,7.25,0,0,1,47,12.75H44.33A6,6,0,0,0,44,11.42a2.82,2.82,0,0,0-.59-1,2.45,2.45,0,0,0-1-.63,4.19,4.19,0,0,0-1.42-.21,3.52,3.52,0,0,0-1.61.35,3.07,3.07,0,0,0-1.15,1,4.68,4.68,0,0,0-.69,1.62,9.44,9.44,0,0,0-.23,2.19V16a10.18,10.18,0,0,0,.2,2.11,5,5,0,0,0,.63,1.63,3,3,0,0,0,1.1,1.05,3.27,3.27,0,0,0,1.61.37A4.69,4.69,0,0,0,42.4,21a2.52,2.52,0,0,0,1-.6,2.73,2.73,0,0,0,.61-1,5.82,5.82,0,0,0,.31-1.32Z"/><path d="M48.7,17.27a7.13,7.13,0,0,1,.37-2.33,5.54,5.54,0,0,1,1.06-1.86,4.84,4.84,0,0,1,1.68-1.24,5.41,5.41,0,0,1,2.25-.45,5.52,5.52,0,0,1,2.27.45A4.82,4.82,0,0,1,58,13.08a5.47,5.47,0,0,1,1.05,1.86,7.23,7.23,0,0,1,.36,2.33v.22a7.28,7.28,0,0,1-.36,2.34A5.39,5.39,0,0,1,58,21.7a4.8,4.8,0,0,1-1.69,1.23,6,6,0,0,1-4.53,0,4.81,4.81,0,0,1-1.69-1.23,5.47,5.47,0,0,1-1.06-1.86,7.17,7.17,0,0,1-.37-2.34Zm2.59.22A6.56,6.56,0,0,0,51.45,19a3.66,3.66,0,0,0,.5,1.21,2.63,2.63,0,0,0,3.37.82,2.47,2.47,0,0,0,.86-.82,3.84,3.84,0,0,0,.5-1.21,6.34,6.34,0,0,0,.17-1.47v-.22a6.23,6.23,0,0,0-.17-1.46,3.78,3.78,0,0,0-.51-1.21,2.62,2.62,0,0,0-.87-.83,2.44,2.44,0,0,0-1.25-.31,2.38,2.38,0,0,0-1.24.31,2.64,2.64,0,0,0-.86.83,3.67,3.67,0,0,0-.5,1.21,6.45,6.45,0,0,0-.16,1.46Z"/><path d="M64.07,11.6l.07,1.21a4,4,0,0,1,1.4-1,4.64,4.64,0,0,1,1.93-.37,4.12,4.12,0,0,1,1.89.42,2.84,2.84,0,0,1,1.28,1.35,4.14,4.14,0,0,1,3.54-1.77,5,5,0,0,1,1.6.24,2.88,2.88,0,0,1,1.19.76,3.48,3.48,0,0,1,.75,1.33,6.4,6.4,0,0,1,.26,2v7.48H75.4V15.66a3.25,3.25,0,0,0-.14-1.05,1.58,1.58,0,0,0-.42-.66,1.51,1.51,0,0,0-.65-.34,3.49,3.49,0,0,0-.86-.1,2.16,2.16,0,0,0-1.45.47,2.51,2.51,0,0,0-.78,1.24s0,.07,0,.11,0,.08,0,.11v7.7H68.51V15.69a3.18,3.18,0,0,0-.14-1A1.64,1.64,0,0,0,68,14a1.6,1.6,0,0,0-.66-.37,3.1,3.1,0,0,0-.86-.11,2.52,2.52,0,0,0-1.37.34,2.33,2.33,0,0,0-.84.93v8.37H61.63V11.6Z"/><path d="M83.09,11.6l.07,1.21a4,4,0,0,1,1.4-1,4.64,4.64,0,0,1,1.93-.37,4.12,4.12,0,0,1,1.89.42,2.84,2.84,0,0,1,1.28,1.35,4.14,4.14,0,0,1,3.54-1.77,5,5,0,0,1,1.6.24,2.88,2.88,0,0,1,1.19.76,3.48,3.48,0,0,1,.75,1.33,6.4,6.4,0,0,1,.26,2v7.48H94.42V15.66a3.25,3.25,0,0,0-.14-1.05,1.58,1.58,0,0,0-.42-.66,1.51,1.51,0,0,0-.65-.34,3.49,3.49,0,0,0-.86-.1A2.16,2.16,0,0,0,90.9,14a2.51,2.51,0,0,0-.78,1.24s0,.07,0,.11,0,.08,0,.11v7.7H87.53V15.69a3.18,3.18,0,0,0-.14-1A1.64,1.64,0,0,0,87,14a1.6,1.6,0,0,0-.66-.37,3.1,3.1,0,0,0-.86-.11,2.52,2.52,0,0,0-1.37.34,2.33,2.33,0,0,0-.84.93v8.37H80.65V11.6Z"/><path d="M99.68,8.6a1.38,1.38,0,0,1,.38-1,1.43,1.43,0,0,1,1.08-.39,1.45,1.45,0,0,1,1.09.39,1.37,1.37,0,0,1,.38,1,1.33,1.33,0,0,1-.38,1,1.46,1.46,0,0,1-1.09.39,1.44,1.44,0,0,1-1.08-.39A1.34,1.34,0,0,1,99.68,8.6Zm2.75,14.55H99.84V11.6h2.59Z"/><path d="M108.51,8.8V11.6h2v1.92h-2V20a2,2,0,0,0,.08.64.83.83,0,0,0,.25.38.86.86,0,0,0,.38.18,2.25,2.25,0,0,0,.49,0,3.44,3.44,0,0,0,.52,0l.39-.07v2l-.72.17a5.29,5.29,0,0,1-1,.08,4,4,0,0,1-1.19-.17,2.37,2.37,0,0,1-1-.56,2.58,2.58,0,0,1-.62-1,4.48,4.48,0,0,1-.22-1.52v-6.6H104V11.6h1.9V8.8Z"/><path d="M115,11.6l.07,1.21a4,4,0,0,1,1.4-1,4.64,4.64,0,0,1,1.93-.37,4.12,4.12,0,0,1,1.89.42,2.84,2.84,0,0,1,1.28,1.35,4.14,4.14,0,0,1,3.54-1.77,5,5,0,0,1,1.6.24,2.88,2.88,0,0,1,1.19.76,3.48,3.48,0,0,1,.75,1.33,6.4,6.4,0,0,1,.26,2v7.48H126.3V15.66a3.25,3.25,0,0,0-.14-1.05,1.58,1.58,0,0,0-.42-.66,1.51,1.51,0,0,0-.65-.34,3.49,3.49,0,0,0-.86-.1,2.16,2.16,0,0,0-1.45.47,2.51,2.51,0,0,0-.78,1.24s0,.07,0,.11,0,.08,0,.11v7.7h-2.59V15.69a3.18,3.18,0,0,0-.14-1,1.64,1.64,0,0,0-.42-.67,1.6,1.6,0,0,0-.66-.37,3.1,3.1,0,0,0-.86-.11,2.52,2.52,0,0,0-1.37.34,2.33,2.33,0,0,0-.84.93v8.37h-2.59V11.6Z"/><path d="M136.64,23.37a5.93,5.93,0,0,1-2.31-.43,5.06,5.06,0,0,1-1.74-1.17A5.12,5.12,0,0,1,131.5,20a6.25,6.25,0,0,1-.38-2.21v-.43a7.13,7.13,0,0,1,.41-2.47A5.65,5.65,0,0,1,132.63,13a4.89,4.89,0,0,1,1.66-1.2,5,5,0,0,1,2.05-.42,5.25,5.25,0,0,1,2.19.42A4.13,4.13,0,0,1,140.07,13a5.08,5.08,0,0,1,.91,1.8,8.34,8.34,0,0,1,.3,2.3V18.2h-7.55a4.12,4.12,0,0,0,.28,1.24,3,3,0,0,0,.63,1,2.85,2.85,0,0,0,.93.65,3,3,0,0,0,1.22.24,3.45,3.45,0,0,0,1.67-.38,3.92,3.92,0,0,0,1.23-1.06l1.4,1.33a4.71,4.71,0,0,1-.69.81,4.64,4.64,0,0,1-1,.69,5.5,5.5,0,0,1-1.24.49A6,6,0,0,1,136.64,23.37Zm-.31-9.9a2.19,2.19,0,0,0-1.72.75,3.88,3.88,0,0,0-.84,2.08h4.94v-.19a4.74,4.74,0,0,0-.17-1,2.52,2.52,0,0,0-.41-.84,2,2,0,0,0-.72-.59A2.44,2.44,0,0,0,136.33,13.47Z"/><path d="M145.69,11.6l.08,1.33a4.22,4.22,0,0,1,1.46-1.14,4.37,4.37,0,0,1,1.9-.41,4.71,4.71,0,0,1,1.51.23,2.79,2.79,0,0,1,1.16.74,3.45,3.45,0,0,1,.74,1.33,6.65,6.65,0,0,1,.26,2v7.46h-2.59V15.67a3.3,3.3,0,0,0-.13-1,1.65,1.65,0,0,0-.39-.67,1.48,1.48,0,0,0-.64-.37,3.1,3.1,0,0,0-.87-.11,2.5,2.5,0,0,0-1.39.38,2.8,2.8,0,0,0-.95,1v8.22h-2.59V11.6Z"/><path d="M158.7,8.8V11.6h2v1.92h-2V20a2,2,0,0,0,.08.64A.83.83,0,0,0,159,21a.86.86,0,0,0,.38.18,2.25,2.25,0,0,0,.49,0,3.44,3.44,0,0,0,.52,0l.39-.07v2l-.72.17a5.29,5.29,0,0,1-1,.08,4,4,0,0,1-1.19-.17,2.37,2.37,0,0,1-1-.56,2.58,2.58,0,0,1-.62-1,4.48,4.48,0,0,1-.22-1.52v-6.6h-1.9V11.6h1.9V8.8Z"/><path d="M169.19,20a1.45,1.45,0,0,0-.09-.52,1.06,1.06,0,0,0-.36-.45,2.87,2.87,0,0,0-.75-.39,8.67,8.67,0,0,0-1.26-.34,11.2,11.2,0,0,1-1.69-.48,5.22,5.22,0,0,1-1.31-.7,3,3,0,0,1-.85-1,2.62,2.62,0,0,1-.3-1.28,3,3,0,0,1,.31-1.34,3.34,3.34,0,0,1,.89-1.12,4.44,4.44,0,0,1,1.41-.76,5.71,5.71,0,0,1,1.85-.28,6.18,6.18,0,0,1,1.94.28,4.4,4.4,0,0,1,1.46.78,3.33,3.33,0,0,1,1.23,2.62h-2.59a1.71,1.71,0,0,0-.13-.65,1.62,1.62,0,0,0-.38-.56,1.88,1.88,0,0,0-.63-.39,2.48,2.48,0,0,0-.88-.14,2.67,2.67,0,0,0-.85.12,1.89,1.89,0,0,0-.6.32,1.27,1.27,0,0,0-.36.46,1.33,1.33,0,0,0-.12.55,1.18,1.18,0,0,0,.11.51,1,1,0,0,0,.38.41,3.14,3.14,0,0,0,.73.34,10.77,10.77,0,0,0,1.15.3,13.63,13.63,0,0,1,1.8.5,5.09,5.09,0,0,1,1.34.71,2.84,2.84,0,0,1,.84,1,2.94,2.94,0,0,1,.29,1.34,3,3,0,0,1-.33,1.41,3.25,3.25,0,0,1-.95,1.1,4.58,4.58,0,0,1-1.48.72,6.74,6.74,0,0,1-1.92.26A6,6,0,0,1,165,23a4.78,4.78,0,0,1-1.53-.88,3.66,3.66,0,0,1-.93-1.23,3.34,3.34,0,0,1-.31-1.4h2.52a2,2,0,0,0,.25.9,1.81,1.81,0,0,0,.54.59,2.28,2.28,0,0,0,.75.33,3.56,3.56,0,0,0,.85.1,2.62,2.62,0,0,0,1.56-.39A1.21,1.21,0,0,0,169.19,20Z"/><line class="cls-7" x1="27.08" y1="26.33" x2="27.08" y2="3.08"/><g class="cls-8"><g class="cls-4"><rect x="1.16" y="1.37" width="20.01" height="27.34"/></g></g><g class="cls-9"><g class="cls-4"><rect x="0.24" width="21.78" height="7.52"/></g></g><g class="cls-10"><g class="cls-4"><rect x="2.69" y="4.38" width="17.19" height="12.51"/></g></g><g class="cls-11"><g class="cls-4"><rect x="3.2" y="14.92" width="16.29" height="12.17"/></g></g></g></g></svg>