<svg xmlns="http://www.w3.org/2000/svg" viewBox="0 0 185.08 200"><defs><style>.cls-1{fill:#fff;}</style></defs><title>Time Selection White</title><g id="Detail"><circle cx="92.08" cy="99" r="89"/><path class="cls-1" d="M128.08,35V33.68c0-5.32-4.72-9.68-10-9.68h-63v1a9.92,9.92,0,0,0,9.63,10h1.37v5.66a31.46,31.46,0,0,0,0,38.94v37.48a32.89,32.89,0,0,0,0,39.92v5h-11v1.36A9.64,9.64,0,0,0,64.71,173h63.37v-1a10.31,10.31,0,0,0-10-10h-3v-5.47a31.51,31.51,0,0,0,0-39V79.31a30.61,30.61,0,0,0,0-38.35V35Zm-15,6.4-.11.08.11.14v37l-.11.14.11.08V118l-.1.08.1.13v37.66L113,156l.11.08V162h-3v-.24l0,0,0,0v-10l.11-.15-.11-.08V122.62l.1-.08-.1-.14V112.28l.06-.06-.06-.06V84.84l.07-.07-.07-.07V74.44l.11-.15-.11-.08V46.09l.11-.07-.11-.15V35.7l0,0h0V35h3ZM74.69,162c-.65,0-1.61-.48-1.61-.94v-6.48a22.81,22.81,0,0,0,15.57,7.13c.61,0,1.15.05,1.77.05s1.11,0,1.72-.05a22.74,22.74,0,0,0,15.93-7.51v6.59c0,.54-1.26,1.21-2.05,1.21Zm13.95-2.28A21.24,21.24,0,0,1,73.2,152h34.31a21.22,21.22,0,0,1-15.43,7.72A30.7,30.7,0,0,1,88.64,159.72Zm3.32,1a29.63,29.63,0,0,1-3.2,0A31.21,31.21,0,0,0,92,160.73ZM73.08,36.47c1-.63,1.45-1.47,2.38-1.47h29.91c1,0,1.71.93,2.71,1.65v6.66a22.61,22.61,0,0,0-15.94-7.6,26.56,26.56,0,0,0-3.44,0A22.44,22.44,0,0,0,73.08,43Zm34.16-1.79c.34.23.68.47,1,.72h0c-.34-.25-.67-.49-1-.72Zm1,50.8c-4.63,4.84-8.44,8.79-8.87,9.23l.25-.26c1-1,4.48-4.66,8.62-9ZM108.08,84c-4,4.65-8.19,8.62-9.25,9.73a3.84,3.84,0,0,0-.24.3h0a6.7,6.7,0,0,0-.07,9.29l9.55,9.63v7c0-.26-.39-.53-.64-.79L95.11,106.84a11.46,11.46,0,0,1-3.35-8.13,11.28,11.28,0,0,1,3.31-8l12.62-13.24c.17-.18.39-.35.39-.53ZM98.55,95.75a5.56,5.56,0,0,0-.84,3A5.55,5.55,0,0,1,98.55,95.75Zm-11,30.37a5.36,5.36,0,0,0,2.52-6.39c-.72-2.73-1.42-5.47-2.14-8.18l2.59-2.92,2.27,2.71-.94,6.88a8.64,8.64,0,0,0,.31,4.85,7.07,7.07,0,0,0,3.13,3.42l9.92,5.33a1.85,1.85,0,0,1-.89.17h-2.23v14.09c0,1.79-2,2.91-3.81,2.91H90.08v-9H86.6a3.37,3.37,0,0,0-3.51,3.34V149h-.52c-1.79,0-3.48-1.12-3.48-2.91V132H77.51a1.93,1.93,0,0,1-.92-.18Zm-11.12,4.68,7.71-4Zm11.67-20.94,1.71-1.92.05-.05-.05.05Zm4.85,12.47a8.23,8.23,0,0,1-.1-4l.21-1.56-.21,1.56A8.36,8.36,0,0,0,92.93,122.34Zm13.38,9.7a1.3,1.3,0,0,1-.68.72A1.34,1.34,0,0,0,106.31,132Zm-.08-.62a.73.73,0,0,1,.1.28A.73.73,0,0,0,106.22,131.42Zm-12.15-7.15a6,6,0,0,0,1.68,1.34A6,6,0,0,1,94.07,124.27Zm-6,24.73h-3v-5.66A1.38,1.38,0,0,1,86.6,142h1.49Zm-.54-59.35L74.59,76c-.6-.63-1.51-1.28-1.51-1.93V46.16A21.07,21.07,0,0,1,88.86,37.7a26.1,26.1,0,0,1,3.22,0,21,21,0,0,1,16,8.8V73.78c0,.76-1.11,1.52-1.83,2.27L93.61,89.28a13.06,13.06,0,0,0-3.15,5.16A12.68,12.68,0,0,0,87.54,89.65Zm-14.72-14c.29.34.6.69.92,1-.32-.33-.62-.68-.92-1Zm.71-31.92a21.81,21.81,0,0,1,12.93-6.81A21.82,21.82,0,0,0,73.53,43.74Zm16.91-7.09c.55,0,1.1,0,1.63,0Q91.27,36.65,90.44,36.65ZM91,96.4h0a12.16,12.16,0,0,1,2.75-5.75A12.17,12.17,0,0,0,91,96.4Zm17.26-21c-.37.45-.77.9-1.19,1.34L95.14,89.17l11.92-12.42c.43-.45.82-.89,1.2-1.34Zm-27,20.48a4.18,4.18,0,0,1,0,5.61l-8.22,8.31V87.16Zm.86-.39a4.94,4.94,0,0,1,1.16,3.18A5,5,0,0,0,82.16,95.49Zm-9.07,17.14,9.6-9.73a6.17,6.17,0,0,0,.08-8.42L73.08,84.26V77.15a.27.27,0,0,0,.06.21L85.63,90.49l.51.56A11,11,0,0,1,86,106.38l-12.7,12.8c-.13.13-.26.27-.26.41Zm0,10c0-.7,1-1.39,1.67-2L87.51,107.8a12.7,12.7,0,0,0,3-4.87,13.56,13.56,0,0,0,3.25,5.32L106,120.6c.78.78,2.05,1.62,2.05,2.48V150h-6.36c1.09-1,2.36-2.35,2.36-3.91V134h.23a2.87,2.87,0,0,0,3-1.8,1.84,1.84,0,0,0-1.08-2.09l-10-5.39A5.06,5.06,0,0,1,94,122.28a6.82,6.82,0,0,1-.16-3.79l.93-6.83a2,2,0,0,0-.46-1.65l-2.34-2.58a1.81,1.81,0,0,0-1.43-.42h0a1.86,1.86,0,0,0-1.47.45l-2.61,2.85a1.82,1.82,0,0,0-.44,1.77c.71,2.74,1.41,5.46,2.13,8.2a3.41,3.41,0,0,1-1.51,4.1c-8.79,4.58-10.58,5.52-11,5.74h0a2,2,0,0,0-1.23,2.13A3.1,3.1,0,0,0,77.08,134v12a5.44,5.44,0,0,0,2,3.91h-6Zm14-11.68a1,1,0,0,0-.17.39A1,1,0,0,1,87.11,111ZM75.47,131.81a.69.69,0,0,1,0-.12A.71.71,0,0,0,75.47,131.81Zm.73,1a1.28,1.28,0,0,1-.71-.77A1.31,1.31,0,0,0,76.2,132.76Zm-.71-1.11a.71.71,0,0,1,.06-.16A.75.75,0,0,0,75.49,131.65Zm.07-.19a.94.94,0,0,1,.14-.2A.9.9,0,0,0,75.56,131.46ZM100,101.94a4.73,4.73,0,0,1,0-6.48,95.76,95.76,0,0,0,8.14-8.54v23.23Zm8.3,60.12h0l-.4.3h0Zm18.41-129a8.67,8.67,0,0,0-.17-1.26A8.6,8.6,0,0,1,126.67,33.1Zm-3.56-6.42a8.61,8.61,0,0,0-5-1.64A8.59,8.59,0,0,1,123.11,26.68Zm-67-1.06a8.64,8.64,0,0,0,.17,1.26A8.6,8.6,0,0,1,56.09,25.62ZM59.65,32a8.61,8.61,0,0,0,5,1.64A8.59,8.59,0,0,1,59.65,32Zm-2.52-6H118a7.77,7.77,0,0,1,7.58,7h-19.7l-.2-.12-.07.12H75.16l-.07-.12-.2.12H64.71A7.77,7.77,0,0,1,57.13,26Zm8.95,50.13a30.62,30.62,0,0,1,0-32ZM65.93,42h0c-7.52,11-7.88,25.31.12,35.9h0C58.08,67.31,58.41,53,65.93,42Zm.16,78.49v33.08A28.68,28.68,0,0,1,66.08,120.49Zm2,36,.1-.08-.1-.12V138h-.21l0-.56c0-.52,0-1.22,0-1.77V135h.21V117.77l.09-.12-.09-.08V79.13l.1-.08-.1-.13V41.32l.1-.13-.1-.08V35h3v.47h0v10l-.11.15.11.08V74.51l-.11.08.11.14V84.92L71,85l.07.07v26.74l-.06.06.06.06v10l-.1.13.1.08V152l-.1.08.1.14V162l0,0h0v0h-3Zm-12,7.41a8.64,8.64,0,0,0,.17,1.26A8.6,8.6,0,0,1,56.09,163.94Zm3.56,6.42a8.61,8.61,0,0,0,5,1.64A8.59,8.59,0,0,1,59.65,170.36Zm67,1.05a8.67,8.67,0,0,0-.17-1.26A8.6,8.6,0,0,1,126.67,171.42ZM123.11,165a8.61,8.61,0,0,0-5-1.64A8.59,8.59,0,0,1,123.11,165ZM118,164a8,8,0,0,1,7.58,7H64.71a7.77,7.77,0,0,1-7.58-7h17l.18.11.07-.11h32l.07.11.19-.11H118Zm-3-11V121A30.6,30.6,0,0,1,115.08,153Zm0-108.44a29.32,29.32,0,0,1,0,31.22Zm3.75,25.65a29.87,29.87,0,0,0-3.75-27.51h0A29.87,29.87,0,0,1,118.84,70.2Z"/><path class="cls-1" d="M102.16,76.57A2.53,2.53,0,0,0,99.81,75H82.18A3,3,0,0,0,80,80.08L90.18,91.15l11.46-11.81A2.52,2.52,0,0,0,102.16,76.57Zm-22,1.3a2,2,0,0,0,0,.58A2,2,0,0,1,80.17,77.86Zm.49-1.16a2,2,0,0,1,.39-.35A2,2,0,0,0,80.66,76.71Zm.59.91a1,1,0,0,1,.93-.62H99.81a.56.56,0,0,1,.4,1l-10,10.29-8.79-9.52A1,1,0,0,1,81.24,77.62Z"/><path class="cls-1" d="M99.08,135.43A2.43,2.43,0,0,0,96.65,133H94.51a2.43,2.43,0,0,0-2.43,2.43v2.14A2.43,2.43,0,0,0,94.51,140h2.14a2.43,2.43,0,0,0,2.43-2.43Zm-2,2.14a.43.43,0,0,1-.43.43H94.51a.43.43,0,0,1-.43-.43v-2.14a.43.43,0,0,1,.43-.43h2.14a.43.43,0,0,1,.43.43Z"/></g></svg>