<?xml version="1.0" encoding="UTF-8" standalone="no"?>
<svg width="120px" height="120px" viewBox="0 0 120 120" version="1.1" xmlns="http://www.w3.org/2000/svg" xmlns:xlink="http://www.w3.org/1999/xlink">
    <!-- Generator: Sketch 3.8.3 (29802) - http://www.bohemiancoding.com/sketch -->
    <title>Shopping_W</title>
    <desc>Created with Sketch.</desc>
    <defs>
        <polygon id="path-1" points="19.2381905 71 38.318 71 38.318 0.681 19.2381905 0.681 0.158381099 0.681 0.158381099 71"></polygon>
    </defs>
    <g id="Symbols" stroke="none" stroke-width="1" fill="none" fill-rule="evenodd">
        <g id="Shopping_W">
            <g id="Page-1" transform="translate(21.000000, 24.000000)">
                <path d="M35.1582,3.0009 C16.8752,3.0009 2.0002,17.8759 2.0002,36.1589 C2.0002,54.4419 16.8752,69.3169 35.1582,69.3169 C53.4412,69.3169 68.3162,54.4419 68.3162,36.1589 C68.3162,17.8759 53.4412,3.0009 35.1582,3.0009 M35.1582,71.3169 C15.7712,71.3169 0.0002,55.5459 0.0002,36.1589 C0.0002,16.7719 15.7712,1.0009 35.1582,1.0009 C54.5452,1.0009 70.3162,16.7719 70.3162,36.1589 C70.3162,55.5459 54.5452,71.3169 35.1582,71.3169" id="Fill-1" fill="#FFFFFF"></path>
                <g id="Group-5" transform="translate(36.000000, 0.319300)">
                    <mask id="mask-2" fill="white">
                        <use xlink:href="#path-1"></use>
                    </mask>
                    <g id="Clip-4"></g>
                    <path d="M3.1582,71 C2.4682,71 1.7772,70.979 1.0972,70.938 C0.5472,70.905 0.1272,70.432 0.1602,69.88 C0.1932,69.329 0.6832,68.924 1.2192,68.942 C1.8592,68.981 2.5092,69 3.1582,69 C21.4422,69 36.3182,54.124 36.3182,35.84 C36.3182,17.556 21.4422,2.681 3.1582,2.681 C2.5092,2.681 1.8592,2.699 1.2192,2.738 C0.6842,2.781 0.1932,2.353 0.1602,1.801 C0.1272,1.249 0.5472,0.775 1.0972,0.742 C1.7772,0.701 2.4682,0.681 3.1582,0.681 C22.5462,0.681 38.3182,16.453 38.3182,35.84 C38.3182,55.228 22.5462,71 3.1582,71" id="Fill-3" fill="#FFFFFF" mask="url(#mask-2)"></path>
                </g>
                <path d="M10.9463,54.8388 C10.6373,54.8388 10.3343,54.6968 10.1373,54.4288 C9.3293,53.3228 8.5873,52.1508 7.9303,50.9438 C5.4853,46.4458 4.1933,41.3468 4.1933,36.1938 C4.1933,19.1388 18.0683,5.2638 35.1233,5.2638 C35.6753,5.2638 36.1233,5.7108 36.1233,6.2638 C36.1233,6.8168 35.6753,7.2638 35.1233,7.2638 C19.1713,7.2638 6.1933,20.2418 6.1933,36.1938 C6.1933,41.0138 7.4013,45.7838 9.6873,49.9888 C10.3003,51.1168 10.9963,52.2138 11.7533,53.2488 C12.0783,53.6938 11.9813,54.3198 11.5353,54.6468 C11.3573,54.7768 11.1513,54.8388 10.9463,54.8388" id="Fill-6" fill="#FFFFFF"></path>
                <path d="M23.2646,64.6826 C23.1316,64.6826 22.9966,64.6566 22.8686,64.6006 C20.4676,63.5636 18.2006,62.2196 16.1286,60.6066 C15.6936,60.2666 15.6156,59.6386 15.9536,59.2036 C16.2926,58.7676 16.9206,58.6896 17.3576,59.0286 C19.2956,60.5376 21.4156,61.7946 23.6606,62.7646 C24.1676,62.9836 24.4016,63.5726 24.1826,64.0786 C24.0196,64.4566 23.6516,64.6826 23.2646,64.6826" id="Fill-8" fill="#FFFFFF"></path>
                <path d="M35.123,67.124 C33.186,67.124 31.248,66.943 29.363,66.588 C28.82,66.485 28.464,65.963 28.566,65.42 C28.668,64.878 29.194,64.522 29.734,64.623 C31.497,64.955 33.311,65.124 35.123,65.124 C35.676,65.124 36.123,65.571 36.123,66.124 C36.123,66.677 35.676,67.124 35.123,67.124" id="Fill-10" fill="#FFFFFF"></path>
                <path d="M30.5801,30.1386 C29.2731,30.1386 28.2111,31.2006 28.2111,32.5076 C28.2111,33.8146 29.2731,34.8766 30.5801,34.8766 C31.8871,34.8766 32.9491,33.8146 32.9491,32.5076 C32.9491,31.2006 31.8871,30.1386 30.5801,30.1386 M30.5801,36.8766 C28.1711,36.8766 26.2111,34.9166 26.2111,32.5076 C26.2111,30.0986 28.1711,28.1386 30.5801,28.1386 C32.9891,28.1386 34.9491,30.0986 34.9491,32.5076 C34.9491,34.9166 32.9891,36.8766 30.5801,36.8766" id="Fill-12" fill="#FFFFFF"></path>
                <path d="M40.5801,30.1386 C39.2731,30.1386 38.2111,31.2006 38.2111,32.5076 C38.2111,33.8146 39.2731,34.8766 40.5801,34.8766 C41.8871,34.8766 42.9491,33.8146 42.9491,32.5076 C42.9491,31.2006 41.8871,30.1386 40.5801,30.1386 M40.5801,36.8766 C38.1711,36.8766 36.2111,34.9166 36.2111,32.5076 C36.2111,30.0986 38.1711,28.1386 40.5801,28.1386 C42.9891,28.1386 44.9491,30.0986 44.9491,32.5076 C44.9491,34.9166 42.9891,36.8766 40.5801,36.8766" id="Fill-14" fill="#FFFFFF"></path>
                <path d="M30.5801,40.1386 C29.2731,40.1386 28.2111,41.2006 28.2111,42.5076 C28.2111,43.8146 29.2731,44.8766 30.5801,44.8766 C31.8871,44.8766 32.9491,43.8146 32.9491,42.5076 C32.9491,41.2006 31.8871,40.1386 30.5801,40.1386 M30.5801,46.8766 C28.1711,46.8766 26.2111,44.9166 26.2111,42.5076 C26.2111,40.0986 28.1711,38.1386 30.5801,38.1386 C32.9891,38.1386 34.9491,40.0986 34.9491,42.5076 C34.9491,44.9166 32.9891,46.8766 30.5801,46.8766" id="Fill-16" fill="#FFFFFF"></path>
                <path d="M40.5801,40.1386 C39.2731,40.1386 38.2111,41.2006 38.2111,42.5076 C38.2111,43.8146 39.2731,44.8766 40.5801,44.8766 C41.8871,44.8766 42.9491,43.8146 42.9491,42.5076 C42.9491,41.2006 41.8871,40.1386 40.5801,40.1386 M40.5801,46.8766 C38.1711,46.8766 36.2111,44.9166 36.2111,42.5076 C36.2111,40.0986 38.1711,38.1386 40.5801,38.1386 C42.9891,38.1386 44.9491,40.0986 44.9491,42.5076 C44.9491,44.9166 42.9891,46.8766 40.5801,46.8766" id="Fill-18" fill="#FFFFFF"></path>
            </g>
        </g>
    </g>
</svg>