<svg xmlns="http://www.w3.org/2000/svg" viewBox="0 0 105 105"><defs><style>.cls-1{fill:none;stroke:#000;stroke-miterlimit:10;stroke-width:2px;}</style></defs><title>Goal_Car</title><g id="Detail"><path class="cls-1" d="M17,77H15.55C12.41,77,10,74.1,10,70.95V68.9C10,59.42,17.53,51,27,51H74c10.72,0,19,9.43,19,20.16V77H86"/><line class="cls-1" x1="69" y1="77" x2="34" y2="77"/><line class="cls-1" x1="31.98" y1="51.9" x2="31.98" y2="42.06"/><line class="cls-1" x1="68.52" y1="51.73" x2="56.25" y2="36.84"/><circle class="cls-1" cx="25.83" cy="76.48" r="8.6"/><circle class="cls-1" cx="77.76" cy="76.48" r="8.6"/><line class="cls-1" x1="39.77" y1="58.34" x2="39.77" y2="72.06"/><line class="cls-1" x1="8.27" y1="85.61" x2="99.06" y2="85.61"/><line class="cls-1" x1="48.25" y1="65.5" x2="58.13" y2="55.63"/><line class="cls-1" x1="49.25" y1="72.25" x2="65.88" y2="55.63"/><line class="cls-1" x1="57" y1="72.25" x2="69.5" y2="59.75"/></g></svg>