<svg xmlns="http://www.w3.org/2000/svg" viewBox="0 0 105 105"><defs><style>.cls-1{fill:none;stroke:#000;stroke-miterlimit:10;stroke-width:2px;}</style></defs><title>Goal_House</title><g id="Detail"><path class="cls-1" d="M23,45V93H70.31A14.5,14.5,0,0,0,84.89,80.33"/><line class="cls-1" x1="85" y1="73" x2="85" y2="45"/><path class="cls-1" d="M58.77,14.6,95.54,45h-80a1.47,1.47,0,0,1-.94-2.6L48.23,14.6A8.27,8.27,0,0,1,58.77,14.6Z"/><path class="cls-1" d="M39.86,60.94h9.47a0,0,0,0,1,0,0V93a0,0,0,0,1,0,0H32a0,0,0,0,1,0,0V68.8A7.86,7.86,0,0,1,39.86,60.94Z"/><rect class="cls-1" x="59.67" y="61.17" width="14.33" height="12.83"/><line class="cls-1" x1="19.33" y1="96.33" x2="100.33" y2="96.33"/><line class="cls-1" x1="90.67" y1="91.67" x2="90.67" y2="80.33"/><path class="cls-1" d="M81,73H94.09a4.58,4.58,0,0,1,4.58,4.58v2.75a0,0,0,0,1,0,0H81a0,0,0,0,1,0,0V73A0,0,0,0,1,81,73Z"/><line class="cls-1" x1="26.33" y1="49" x2="80.67" y2="49"/></g></svg>