<?xml version="1.0" encoding="UTF-8" standalone="no"?>
<svg width="120px" height="120px" viewBox="0 0 120 120" version="1.1" xmlns="http://www.w3.org/2000/svg" xmlns:xlink="http://www.w3.org/1999/xlink">
    <!-- Generator: Sketch 3.8.3 (29802) - http://www.bohemiancoding.com/sketch -->
    <title>House_W</title>
    <desc>Created with Sketch.</desc>
    <defs>
        <polygon id="path-1" points="89.648 37.9863 89.648 0.9393 0 0.9393 2.71050543e-20 37.9863 89.648 37.9863"></polygon>
        <polygon id="path-3" points="0 86.0605 89.648 86.0605 89.648 0.9995 0 0.9995"></polygon>
    </defs>
    <g id="Symbols" stroke="none" stroke-width="1" fill="none" fill-rule="evenodd">
        <g id="House_W">
            <g id="Page-1" transform="translate(15.000000, 17.000000)">
                <path d="M61.6338,86.0468 L13.3238,86.0468 L13.3238,37.0468 L15.3238,37.0468 L15.3238,84.0468 L61.6338,84.0468 C69.1828,84.0468 75.3238,78.0488 75.3238,70.6768 L75.3238,37.0468 L77.3238,37.0468 L77.3238,70.6768 C77.3238,79.1518 70.2848,86.0468 61.6338,86.0468 L61.6338,86.0468 Z" id="Fill-1" fill="#FFFFFF"></path>
                <g id="Group-5" transform="translate(0.000000, 0.060500)">
                    <mask id="mask-2" fill="white">
                        <use xlink:href="#path-1"></use>
                    </mask>
                    <g id="Clip-4"></g>
                    <path d="M5.5586,35.9863 L84.0896,35.9863 L44.8246,3.5333 L5.5586,35.9863 Z M89.6486,37.9863 L-0.0004,37.9863 L44.8246,0.9393 L89.6486,37.9863 Z" id="Fill-3" fill="#FFFFFF" mask="url(#mask-2)"></path>
                </g>
                <path d="M24.3242,84.0605 L39.6572,84.0605 L39.6572,53.9875 L31.1862,53.9875 C27.4022,53.9875 24.3242,57.0655 24.3242,60.8495 L24.3242,84.0605 Z M41.6572,86.0605 L22.3242,86.0605 L22.3242,60.8495 C22.3242,55.9625 26.3002,51.9875 31.1862,51.9875 L41.6572,51.9875 L41.6572,86.0605 Z" id="Fill-6" fill="#FFFFFF"></path>
                <mask id="mask-4" fill="white">
                    <use xlink:href="#path-3"></use>
                </mask>
                <g id="Clip-9"></g>
                <path d="M51.991,65.0465 L64.324,65.0465 L64.324,54.2135 L51.991,54.2135 L51.991,65.0465 Z M49.991,67.0465 L66.324,67.0465 L66.324,52.2135 L49.991,52.2135 L49.991,67.0465 Z" id="Fill-8" fill="#FFFFFF" mask="url(#mask-4)"></path>
            </g>
        </g>
    </g>
</svg>