<?xml version="1.0" encoding="UTF-8" standalone="no"?>
<svg width="120px" height="120px" viewBox="0 0 120 120" version="1.1" xmlns="http://www.w3.org/2000/svg" xmlns:xlink="http://www.w3.org/1999/xlink">
    <!-- Generator: Sketch 3.8.3 (29802) - http://www.bohemiancoding.com/sketch -->
    <title>Personal_W</title>
    <desc>Created with Sketch.</desc>
    <defs>
        <polygon id="path-1" points="33.3273509 0.082 0.826032621 0.082 0.826032621 72.6592 33.3273509 72.6592 33.3273509 0.082"></polygon>
        <polygon id="path-3" points="15.306 18.2217 15.306 0.810108139 0.120073459 0.810108139 0.120073459 18.2217 15.306 18.2217"></polygon>
    </defs>
    <g id="Symbols" stroke="none" stroke-width="1" fill="none" fill-rule="evenodd">
        <g id="Personal_W">
            <g id="Page-1" transform="translate(32.000000, 21.000000)">
                <g id="Group-15" transform="translate(5.000000, 0.918400)">
                    <path d="M6.6514,75 L32.0764,75 C35.7604,75 38.9434,72.251 39.4784,68.604 L45.3424,28.65 L10.6914,28.65 C8.4284,28.65 6.2624,29.614 4.7494,31.295 C3.2344,32.976 2.5014,35.23 2.7354,37.48 L6.6514,75 Z M32.0764,77 L5.7504,77 C5.2384,77 4.8084,76.613 4.7554,76.104 L0.7474,37.687 C0.4534,34.875 1.3704,32.058 3.2624,29.956 C5.1564,27.855 7.8634,26.65 10.6914,26.65 L46.5004,26.65 C46.7914,26.65 47.0664,26.776 47.2564,26.997 C47.4464,27.217 47.5314,27.508 47.4894,27.796 L41.4574,68.896 C40.7794,73.516 36.7464,77 32.0764,77 L32.0764,77 Z" id="Fill-1" fill="#FFFFFF"></path>
                    <g id="Group-5" transform="translate(6.000000, 0.000000)">
                        <mask id="mask-2" fill="white">
                            <use xlink:href="#path-1"></use>
                        </mask>
                        <g id="Clip-4"></g>
                        <path d="M1.8252,72.6592 C1.6932,72.6592 1.5582,72.6332 1.4292,72.5772 C0.9232,72.3582 0.6892,71.7692 0.9082,71.2632 L31.4092,0.6852 C31.6282,0.1792 32.2162,-0.0558 32.7232,0.1642 C33.2302,0.3832 33.4642,0.9712 33.2452,1.4782 L2.7442,72.0552 C2.5812,72.4332 2.2132,72.6592 1.8252,72.6592" id="Fill-3" fill="#FFFFFF" mask="url(#mask-2)"></path>
                    </g>
                    <path d="M33.3428,15.1367 L38.3148,17.2847 L38.3158,17.2847 C38.8178,17.5037 39.3768,17.5117 39.8878,17.3097 C40.3978,17.1067 40.7988,16.7177 41.0168,16.2137 L44.0438,9.2087 C44.2618,8.7037 44.2708,8.1457 44.0688,7.6357 C43.8658,7.1247 43.4768,6.7237 42.9728,6.5057 L38.0018,4.3577 L33.3428,15.1367 Z M39.1288,19.4557 C38.5828,19.4557 38.0378,19.3447 37.5218,19.1207 L31.6318,16.5757 C31.3888,16.4707 31.1968,16.2737 31.0988,16.0267 C31.0008,15.7807 31.0048,15.5047 31.1108,15.2617 L36.5628,2.6467 C36.7808,2.1387 37.3708,1.9057 37.8768,2.1247 L43.7658,4.6697 C44.7608,5.0997 45.5288,5.8917 45.9278,6.8987 C46.3268,7.9057 46.3098,9.0077 45.8798,10.0017 L42.8528,17.0067 C42.4228,18.0007 41.6318,18.7687 40.6248,19.1677 C40.1408,19.3607 39.6348,19.4557 39.1288,19.4557 L39.1288,19.4557 Z" id="Fill-6" fill="#FFFFFF"></path>
                    <path d="M11.917,74.4277 C11.785,74.4277 11.65,74.4017 11.521,74.3457 C11.015,74.1267 10.781,73.5377 11,73.0317 L34.87,17.7967 C35.089,17.2907 35.676,17.0557 36.185,17.2757 C36.691,17.4937 36.925,18.0827 36.706,18.5897 L12.836,73.8237 C12.673,74.2017 12.305,74.4277 11.917,74.4277" id="Fill-8" fill="#FFFFFF"></path>
                    <path d="M41.9756,4.873 C41.8436,4.873 41.7086,4.847 41.5796,4.791 C41.0726,4.571 40.8396,3.982 41.0586,3.476 L41.5006,2.453 C41.7196,1.947 42.3046,1.715 42.8166,1.933 C43.3236,2.152 43.5556,2.741 43.3366,3.248 L42.8946,4.27 C42.7316,4.647 42.3626,4.873 41.9756,4.873" id="Fill-10" fill="#FFFFFF"></path>
                    <g id="Group-14" transform="translate(35.000000, 3.000000)">
                        <mask id="mask-4" fill="white">
                            <use xlink:href="#path-3"></use>
                        </mask>
                        <g id="Clip-13"></g>
                        <path d="M8.2148,18.2217 C7.6788,18.2217 7.1348,18.1157 6.6118,17.8897 L0.7238,15.3437 C0.2168,15.1237 -0.0162,14.5357 0.2018,14.0297 C0.4208,13.5217 1.0118,13.2897 1.5168,13.5077 L7.4048,16.0537 C8.4448,16.5037 9.6588,16.0227 10.1088,14.9817 L13.1358,7.9767 C13.3538,7.4727 13.3618,6.9137 13.1598,6.4037 C12.9568,5.8937 12.5688,5.4927 12.0648,5.2747 L6.1748,2.7287 C5.6678,2.5097 5.4348,1.9207 5.6528,1.4137 C5.8718,0.9077 6.4598,0.6727 6.9678,0.8927 L12.8578,3.4387 C13.8518,3.8677 14.6188,4.6587 15.0188,5.6657 C15.4178,6.6737 15.4018,7.7757 14.9718,8.7707 L11.9438,15.7757 C11.2818,17.3057 9.7838,18.2217 8.2148,18.2217" id="Fill-12" fill="#FFFFFF" mask="url(#mask-4)"></path>
                    </g>
                </g>
                <g id="Group-22" transform="translate(0.000000, 30.918400)" fill="#FFFFFF">
                    <path d="M34.127,40.9697 L23,40.9697 C22.447,40.9697 22,40.5227 22,39.9697 C22,39.4167 22.447,38.9697 23,38.9697 L34.127,38.9697 C37.493,38.9697 40.325,36.5577 40.862,33.2347 L43.497,16.9057 C43.585,16.3607 44.098,15.9847 44.644,16.0767 C45.189,16.1647 45.56,16.6787 45.472,17.2237 L42.837,33.5527 C42.143,37.8507 38.48,40.9697 34.127,40.9697" id="Fill-16"></path>
                    <path d="M45.4043,12.3701 C45.3513,12.3701 45.2983,12.3661 45.2443,12.3571 C44.6993,12.2691 44.3283,11.7561 44.4163,11.2111 L45.9893,1.4571 C46.0773,0.9121 46.5913,0.5391 47.1353,0.6291 C47.6803,0.7171 48.0513,1.2301 47.9643,1.7751 L46.3903,11.5291 C46.3113,12.0201 45.8863,12.3701 45.4043,12.3701" id="Fill-18"></path>
                    <path d="M52,46.9697 L1,46.9697 C0.447,46.9697 0,46.5227 0,45.9697 C0,45.4167 0.447,44.9697 1,44.9697 L52,44.9697 C52.553,44.9697 53,45.4167 53,45.9697 C53,46.5227 52.553,46.9697 52,46.9697" id="Fill-20"></path>
                </g>
            </g>
        </g>
    </g>
</svg>