<svg xmlns="http://www.w3.org/2000/svg" viewBox="0 0 105 105"><defs><style>.cls-1{fill:none;stroke:#000;stroke-miterlimit:10;stroke-width:2px;}</style></defs><title>Goal_Travel</title><g id="Detail"><path class="cls-1" d="M29.7,25.25h62a0,0,0,0,1,0,0V72.14A13.61,13.61,0,0,1,78.09,85.75h-64a0,0,0,0,1,0,0V40.9A15.65,15.65,0,0,1,29.7,25.25Z"/><rect class="cls-1" x="27.75" y="25.25" width="8.19" height="60.5"/><rect class="cls-1" x="70.84" y="25.25" width="9.07" height="60.5"/><path class="cls-1" d="M35.83,89a5.09,5.09,0,0,1-4.67,4.67A5.09,5.09,0,0,1,26.5,89Z"/><path class="cls-1" d="M79.83,89a5.09,5.09,0,0,1-4.67,4.67A5.09,5.09,0,0,1,70.5,89Z"/><path class="cls-1" d="M39.13,21.9h0a5.73,5.73,0,0,1,5.73-5.73H60.08a5.73,5.73,0,0,1,5.73,5.73h0"/><line class="cls-1" x1="12.75" y1="94" x2="95.5" y2="94"/></g></svg>