<?xml version="1.0" encoding="UTF-8" standalone="no"?>
<svg width="120px" height="120px" viewBox="0 0 120 120" version="1.1" xmlns="http://www.w3.org/2000/svg" xmlns:xlink="http://www.w3.org/1999/xlink">
    <!-- Generator: Sketch 3.8.3 (29802) - http://www.bohemiancoding.com/sketch -->
    <title>Travel_W</title>
    <desc>Created with Sketch.</desc>
    <defs>
        <polygon id="path-1" points="0 79.5 79.646 79.5 79.646 0 0 0"></polygon>
    </defs>
    <g id="Symbols" stroke="none" stroke-width="1" fill="none" fill-rule="evenodd">
        <g id="Travel_W">
            <g id="Page-1" transform="translate(20.000000, 20.000000)">
                <path d="M2,69.583 L65.034,69.583 C71.988,69.583 77.646,63.925 77.646,56.971 L77.646,11.083 L16.649,11.083 C8.571,11.083 2,17.655 2,25.733 L2,69.583 L2,69.583 Z M65.034,71.583 L0,71.583 L0,25.733 C0,16.553 7.469,9.083 16.649,9.083 L79.646,9.083 L79.646,56.971 C79.646,65.028 73.092,71.583 65.034,71.583 L65.034,71.583 Z" id="Fill-1" fill="#FFFFFF"></path>
                <mask id="mask-2" fill="white">
                    <use xlink:href="#path-1"></use>
                </mask>
                <g id="Clip-4"></g>
                <path d="M15.698,69.583 L21.889,69.583 L21.889,11.083 L15.698,11.083 L15.698,69.583 Z M13.699,71.583 L23.89,71.583 L23.89,9.083 L13.699,9.083 L13.699,71.583 Z" id="Fill-3" fill="#FFFFFF" mask="url(#mask-2)"></path>
                <path d="M58.788,69.583 L65.858,69.583 L65.858,11.083 L58.788,11.083 L58.788,69.583 Z M56.788,71.583 L67.858,71.583 L67.858,9.083 L56.788,9.083 L56.788,71.583 Z" id="Fill-5" fill="#FFFFFF" mask="url(#mask-2)"></path>
                <path d="M14.6592,74.833 C15.1642,76.125 16.5212,77.5 18.1152,77.5 C19.7082,77.5 21.0652,76.125 21.5702,74.833 L14.6592,74.833 Z M17.9492,79.5 C14.8102,79.5 11.9482,76.399 11.9482,73.833 L11.9482,72.833 L23.9482,72.833 L23.9482,73.833 C23.9482,76.399 21.0872,79.5 17.9492,79.5 L17.9492,79.5 Z" id="Fill-6" fill="#FFFFFF" mask="url(#mask-2)"></path>
                <path d="M58.6592,74.833 C59.1642,76.125 60.5212,77.5 62.1152,77.5 C63.7082,77.5 65.0652,76.125 65.5702,74.833 L58.6592,74.833 Z M61.9492,79.5 C58.8102,79.5 55.9482,76.399 55.9482,73.833 L55.9482,72.833 L67.9482,72.833 L67.9482,73.833 C67.9482,76.399 65.0872,79.5 61.9492,79.5 L61.9492,79.5 Z" id="Fill-7" fill="#FFFFFF" mask="url(#mask-2)"></path>
                <path d="M53.7607,6.7285 L51.7607,6.7285 C51.7607,4.1215 49.6387,1.9995 47.0317,1.9995 L31.8067,1.9995 C29.1987,1.9995 27.0767,4.1215 27.0767,6.7285 L25.0767,6.7285 C25.0767,3.0185 28.0957,-0.0005 31.8067,-0.0005 L47.0317,-0.0005 C50.7417,-0.0005 53.7607,3.0185 53.7607,6.7285" id="Fill-8" fill="#FFFFFF" mask="url(#mask-2)"></path>
            </g>
        </g>
    </g>
</svg>