<?xml version="1.0" encoding="UTF-8" standalone="no"?>
<svg width="120px" height="120px" viewBox="0 0 120 120" version="1.1" xmlns="http://www.w3.org/2000/svg" xmlns:xlink="http://www.w3.org/1999/xlink">
    <!-- Generator: Sketch 3.8.3 (29802) - http://www.bohemiancoding.com/sketch -->
    <title>Wedding_W</title>
    <desc>Created with Sketch.</desc>
    <defs>
        <polygon id="path-1" points="55.979 55.7588 55.979 0.84 0.6697 0.84 0.6697 55.7588 55.979 55.7588"></polygon>
    </defs>
    <g id="Symbols" stroke="none" stroke-width="1" fill="none" fill-rule="evenodd">
        <g id="Wedding_W">
            <g id="Page-1" transform="translate(22.000000, 19.000000)">
                <path d="M27.335,82.1602 C12.263,82.1602 0,69.8372 0,54.6902 C0,41.1622 9.677,29.7582 23.008,27.5732 L23.332,29.5482 C10.972,31.5722 2,42.1462 2,54.6902 C2,68.7342 13.365,80.1602 27.335,80.1602 C41.305,80.1602 52.67,68.7342 52.67,54.6902 L52.67,54.5702 C52.67,52.8392 52.615,50.9922 52.22,49.2182 C49.755,37.9442 40.008,29.7302 28.515,29.2392 L28.601,27.2412 C40.999,27.7702 51.515,36.6312 54.172,48.7862 C54.61,50.7512 54.67,52.8132 54.67,54.5702 L54.67,54.6902 C54.67,69.8372 42.407,82.1602 27.335,82.1602" id="Fill-1" fill="#FFFFFF"></path>
                <path d="M27.4795,76.5704 C15.4155,76.5704 5.5995,66.7554 5.5995,54.6904 C5.5995,44.1134 13.1405,35.0564 23.5305,33.1564 L23.8895,35.1234 C14.4505,36.8504 7.5995,45.0794 7.5995,54.6904 C7.5995,65.6524 16.5175,74.5704 27.4795,74.5704 C38.3225,74.5704 47.2355,65.7504 47.3495,54.9094 L47.3585,54.7874 C47.3605,52.9394 47.1295,51.2054 46.6745,49.5334 C44.5355,41.4934 37.5345,35.6094 29.2525,34.8854 L29.4265,32.8934 C38.5445,33.6894 46.2515,40.1684 48.6065,49.0134 C49.1065,50.8504 49.3605,52.7624 49.3605,54.6904 C49.3605,54.7934 49.3585,54.8834 49.3485,54.9824 C49.1955,66.8904 39.3955,76.5704 27.4795,76.5704" id="Fill-3" fill="#FFFFFF"></path>
                <g id="Group-7" transform="translate(21.000000, 0.160200)">
                    <mask id="mask-2" fill="white">
                        <use xlink:href="#path-1"></use>
                    </mask>
                    <g id="Clip-6"></g>
                    <path d="M27.2197,55.7588 C14.7257,55.2248 4.1447,46.3648 1.4887,34.2138 C1.0577,32.2888 0.6697,30.3938 0.6697,28.4298 L0.6697,28.3098 C0.6697,13.1628 13.0757,0.8398 28.3247,0.8398 C43.5737,0.8398 55.9797,13.1628 55.9797,28.3098 C55.9797,41.7588 46.3687,53.1508 33.1267,55.3968 L32.7927,53.4238 C45.0697,51.3418 53.9797,40.7798 53.9797,28.3098 C53.9797,14.2658 42.4707,2.8398 28.3247,2.8398 C14.1787,2.8398 2.6697,14.2658 2.6697,28.3098 L2.6697,28.4298 C2.6697,30.1928 3.0187,31.8968 3.4407,33.7808 C5.9047,45.0518 15.7177,53.2658 27.3057,53.7608 L27.2197,55.7588 Z" id="Fill-5" fill="#FFFFFF" mask="url(#mask-2)"></path>
                </g>
                <path d="M47.5527,50.2666 C38.4347,49.4696 30.7277,42.9926 28.3727,34.1466 C27.8737,32.3076 27.6197,30.3966 27.6197,28.4696 C27.6197,28.3696 27.6217,28.2796 27.6307,28.1826 C27.7817,16.2726 37.5817,6.5896 49.4997,6.5896 C61.5647,6.5896 71.3797,16.4056 71.3797,28.4696 C71.3797,39.0156 63.8697,48.0636 53.5227,49.9836 L53.1567,48.0166 C62.5577,46.2726 69.3797,38.0516 69.3797,28.4696 C69.3797,17.5076 60.4617,8.5896 49.4997,8.5896 C38.6567,8.5896 29.7437,17.4106 29.6297,28.2506 L29.6217,28.3616 C29.6177,28.3996 29.6197,28.4316 29.6197,28.4696 C29.6197,30.2186 29.8507,31.9546 30.3047,33.6276 C32.4447,41.6666 39.4457,47.5506 47.7267,48.2746 L47.5527,50.2666 Z" id="Fill-8" fill="#FFFFFF"></path>
            </g>
        </g>
    </g>
</svg>