<svg xmlns="http://www.w3.org/2000/svg" viewBox="0 0 107 107"><defs><style>.cls-1{fill:none;stroke:#000;stroke-miterlimit:10;stroke-width:2px;}</style></defs><title>Goal_Wedding</title><g id="Detail"><path class="cls-1" d="M38.5,41.23A26.46,26.46,0,1,0,69,67.36v-.12a25.56,25.56,0,0,0-.47-5.57A26.39,26.39,0,0,0,43.89,40.91"/><path class="cls-1" d="M44.67,46.56A20.85,20.85,0,0,1,63,61.94a20.61,20.61,0,0,1,.72,5.42,1.77,1.77,0,0,1,0,.23A20.88,20.88,0,1,1,39,46.81"/><path class="cls-1" d="M69.29,67.24A26.5,26.5,0,1,0,38,41.14v.12a25.63,25.63,0,0,0,.8,5.57,26.57,26.57,0,0,0,24.8,20.76"/><path class="cls-1" d="M68.67,61.67A20.88,20.88,0,1,0,44,40.91a1.77,1.77,0,0,0,0,.23,20.61,20.61,0,0,0,.72,5.42A20.85,20.85,0,0,0,63,61.94"/></g></svg>