<svg xmlns="http://www.w3.org/2000/svg" viewBox="0 0 104.99 100.49"><defs><style>.cls-1{fill:none;stroke:#000;stroke-miterlimit:10;stroke-width:2px;}</style></defs><title>Payment_Generic</title><g id="Detail"><path d="M68.38,66.59a11.79,11.79,0,0,0-.63-4,8.21,8.21,0,0,0-2.12-3.17,16.9,16.9,0,0,0-4-2.7,53.62,53.62,0,0,0-6.18-2.59q-3.31-1.11-5.94-2.3A18.11,18.11,0,0,1,45.05,49a10.75,10.75,0,0,1-2.82-3.79,13.07,13.07,0,0,1-1-5.33,13.3,13.3,0,0,1,.94-5.08,11.13,11.13,0,0,1,2.7-4,13.11,13.11,0,0,1,4.23-2.63,16.66,16.66,0,0,1,5.57-1.08V20.67h1.92v6.51a16.73,16.73,0,0,1,5.61,1.22,11.79,11.79,0,0,1,4.2,2.94,13,13,0,0,1,2.65,4.6A19.1,19.1,0,0,1,70,42.12H68.1a16.09,16.09,0,0,0-.82-5.22,11.82,11.82,0,0,0-2.4-4.16A11,11,0,0,0,61,30a13.68,13.68,0,0,0-5.4-1,15,15,0,0,0-5.54.92,11.35,11.35,0,0,0-3.87,2.44,9.71,9.71,0,0,0-2.28,3.48,11.21,11.21,0,0,0-.75,4,14.06,14.06,0,0,0,.49,3.86,7.55,7.55,0,0,0,1.9,3.17,15,15,0,0,0,3.93,2.77,47.15,47.15,0,0,0,6.6,2.66q3.2,1.11,5.81,2.28a17.91,17.91,0,0,1,4.47,2.79,11.43,11.43,0,0,1,2.89,3.81,12.5,12.5,0,0,1,1,5.33,13.05,13.05,0,0,1-1,5.1,11.33,11.33,0,0,1-2.7,3.92,12.91,12.91,0,0,1-4.18,2.59A17.56,17.56,0,0,1,57,79.27v6.55H55.08V79.3a23.06,23.06,0,0,1-5.68-.92,14.13,14.13,0,0,1-5-2.58,12.69,12.69,0,0,1-3.5-4.58,16.15,16.15,0,0,1-1.32-6.89H41.5a13.58,13.58,0,0,0,1.31,6.29,11.43,11.43,0,0,0,3.36,4,13,13,0,0,0,4.61,2.16,20.5,20.5,0,0,0,5,.64,14.55,14.55,0,0,0,5.29-.91,12.15,12.15,0,0,0,4-2.42,10.4,10.4,0,0,0,2.47-3.48A10.11,10.11,0,0,0,68.38,66.59Z"/><path class="cls-1" d="M37.49,12.83H97a0,0,0,0,1,0,0V64A28.14,28.14,0,0,1,68.86,92.16H13.67a0,0,0,0,1,0,0V36.65A23.82,23.82,0,0,1,37.49,12.83Z"/></g></svg>