<?xml version="1.0" encoding="UTF-8" standalone="no"?>
<svg width="364px" height="576px" viewBox="0 0 364 576" version="1.1" xmlns="http://www.w3.org/2000/svg" xmlns:xlink="http://www.w3.org/1999/xlink">
    <!-- Generator: Sketch 39.1 (31720) - http://www.bohemiancoding.com/sketch -->
    <title>Group</title>
    <desc>Created with Sketch.</desc>
    <defs>
        <filter x="-50%" y="-50%" width="200%" height="200%" filterUnits="objectBoundingBox" id="filter-1">
            <feOffset dx="0" dy="2" in="SourceAlpha" result="shadowOffsetOuter1"></feOffset>
            <feColorMatrix values="0 0 0 0 0   0 0 0 0 0   0 0 0 0 0  0 0 0 1 0" type="matrix" in="shadowOffsetOuter1" result="shadowMatrixOuter1"></feColorMatrix>
            <feMerge>
                <feMergeNode in="shadowMatrixOuter1"></feMergeNode>
                <feMergeNode in="SourceGraphic"></feMergeNode>
            </feMerge>
        </filter>
        <rect id="path-2" x="0.702849187" y="0" width="255.134255" height="50"></rect>
        <mask id="mask-3" maskContentUnits="userSpaceOnUse" maskUnits="objectBoundingBox" x="0" y="0" width="255.134255" height="50" fill="white">
            <use xlink:href="#path-2"></use>
        </mask>
        <filter x="-50%" y="-50%" width="200%" height="200%" filterUnits="objectBoundingBox" id="filter-4">
            <feOffset dx="0" dy="2" in="SourceAlpha" result="shadowOffsetOuter1"></feOffset>
            <feColorMatrix values="0 0 0 0 0   0 0 0 0 0   0 0 0 0 0  0 0 0 1 0" type="matrix" in="shadowOffsetOuter1" result="shadowMatrixOuter1"></feColorMatrix>
            <feMerge>
                <feMergeNode in="shadowMatrixOuter1"></feMergeNode>
                <feMergeNode in="SourceGraphic"></feMergeNode>
            </feMerge>
        </filter>
        <rect id="path-5" x="0.54969917" y="0" width="199.540799" height="50"></rect>
        <mask id="mask-6" maskContentUnits="userSpaceOnUse" maskUnits="objectBoundingBox" x="0" y="0" width="199.540799" height="50" fill="white">
            <use xlink:href="#path-5"></use>
        </mask>
        <filter x="-50%" y="-50%" width="200%" height="200%" filterUnits="objectBoundingBox" id="filter-7">
            <feOffset dx="0" dy="2" in="SourceAlpha" result="shadowOffsetOuter1"></feOffset>
            <feColorMatrix values="0 0 0 0 0   0 0 0 0 0   0 0 0 0 0  0 0 0 1 0" type="matrix" in="shadowOffsetOuter1" result="shadowMatrixOuter1"></feColorMatrix>
            <feMerge>
                <feMergeNode in="shadowMatrixOuter1"></feMergeNode>
                <feMergeNode in="SourceGraphic"></feMergeNode>
            </feMerge>
        </filter>
        <rect id="path-8" x="0.546964348" y="0" width="198.548058" height="50"></rect>
        <mask id="mask-9" maskContentUnits="userSpaceOnUse" maskUnits="objectBoundingBox" x="0" y="0" width="198.548058" height="50" fill="white">
            <use xlink:href="#path-8"></use>
        </mask>
        <filter x="-50%" y="-50%" width="200%" height="200%" filterUnits="objectBoundingBox" id="filter-10">
            <feOffset dx="0" dy="2" in="SourceAlpha" result="shadowOffsetOuter1"></feOffset>
            <feColorMatrix values="0 0 0 0 0.6   0 0 0 0 0.6   0 0 0 0 0.6  0 0 0 1 0" type="matrix" in="shadowOffsetOuter1" result="shadowMatrixOuter1"></feColorMatrix>
            <feMerge>
                <feMergeNode in="shadowMatrixOuter1"></feMergeNode>
                <feMergeNode in="SourceGraphic"></feMergeNode>
            </feMerge>
        </filter>
        <rect id="path-11" x="22" y="17" width="222" height="8" rx="4"></rect>
        <mask id="mask-12" maskContentUnits="userSpaceOnUse" maskUnits="objectBoundingBox" x="0" y="0" width="222" height="8" fill="white">
            <use xlink:href="#path-11"></use>
        </mask>
        <polygon id="path-13" points="361.875 535 361.875 0.2482 0.0003 0.2482 0.0003 535"></polygon>
        <polygon id="path-15" points="5.92511726e-05 37.9469568 33.8241244 37.9469568 33.8241244 0 5.92511726e-05 0 5.92511726e-05 37.9469568"></polygon>
        <polygon id="path-17" points="26.831643 26.8301887 0 26.8301887 0 0.167162264 26.831643 0.167162264"></polygon>
        <polygon id="path-19" points="12.1786643 1.20579223 24.3572993 1.20579223 24.3572993 0 2.92963752e-05 2.67739659e-16 2.92963752e-05 1.20579223"></polygon>
    </defs>
    <g id="Screens" stroke="none" stroke-width="1" fill="none" fill-rule="evenodd">
        <g id="No-Elements" transform="translate(-11.000000, -78.000000)">
            <g id="Group" transform="translate(11.000000, 77.000000)">
                <g id="Background" transform="translate(0.000000, 103.000000)">
                    <g id="Bacground'" fill="#F6F3F3">
                        <rect id="Rectangle" x="0" y="0" width="353" height="413"></rect>
                    </g>
                    <g id="Income/Goals" transform="translate(6.000000, 12.000000)">
                        <g id="Background" filter="url(#filter-1)" transform="translate(27.000000, 2.000000)" stroke-width="2" stroke="#000000" fill="#FFFFFF">
                            <g id="Drop-Down">
                                <use id="Rectangle-31-Copy-23" mask="url(#mask-3)" xlink:href="#path-2"></use>
                            </g>
                        </g>
                        <ellipse id="Oval-Copy-2" stroke="#FFFFFF" fill="#000000" cx="26.9375" cy="27.7105263" rx="26.9375" ry="27.7105263"></ellipse>
                        <polyline id="Line-Copy-12" stroke="#EEEEEE" stroke-linecap="square" transform="translate(140.500000, 28.065789) scale(1, -1) translate(-140.500000, -28.065789) " points="65 27.5657895 137.402861 27.5657895 216 27.5657895"></polyline>
                    </g>
                    <g id="Funnel-Back" transform="translate(231.000000, 93.000000)" fill="#FFFFFF">
                        <polygon id="Fill-1" points="0.0176685879 26.2074223 78.1227334 26.2074223 78.1227334 0.39185667 0.0176685879 0.39185667"></polygon>
                    </g>
                    <g id="Suspense" transform="translate(6.000000, 137.000000)">
                        <g id="Background" filter="url(#filter-4)" transform="translate(27.000000, 2.000000)" stroke-width="2" stroke="#000000" fill="#FFFFFF">
                            <g id="Drop-Down">
                                <use id="Rectangle-31-Copy-23" mask="url(#mask-6)" xlink:href="#path-5"></use>
                            </g>
                        </g>
                        <ellipse id="Oval-Copy-2" stroke="#FFFFFF" fill="#000000" cx="26.9375" cy="27.7105263" rx="26.9375" ry="27.7105263"></ellipse>
                        <polyline id="Line-Copy-12" stroke="#EEEEEE" stroke-linecap="square" transform="translate(140.500000, 28.065789) scale(1, -1) translate(-140.500000, -28.065789) " points="65 27.5657895 137.402861 27.5657895 216 27.5657895"></polyline>
                    </g>
                    <g id="Discretion" transform="translate(6.000000, 76.000000)">
                        <g id="Background" filter="url(#filter-7)" transform="translate(27.000000, 2.000000)" stroke-width="2" stroke="#000000" fill="#FFFFFF">
                            <g id="Drop-Down">
                                <use id="Rectangle-31-Copy-23" mask="url(#mask-9)" xlink:href="#path-8"></use>
                            </g>
                        </g>
                        <path d="M26.9375,55.4210526 C41.8146704,55.4210526 53.875,43.0146274 53.875,27.7105263 C53.875,12.4064252 41.8146704,0 26.9375,0 C12.0603296,0 0,12.4064252 0,27.7105263 C0,43.0146274 12.0603296,55.4210526 26.9375,55.4210526 Z" id="Oval-Copy-2" stroke="#FFFFFF" fill="#000000"></path>
                        <polyline id="Line-Copy-12" stroke="#EEEEEE" stroke-linecap="square" transform="translate(140.500000, 28.065789) scale(1, -1) translate(-140.500000, -28.065789) " points="65 27.5657895 137.402861 27.5657895 216 27.5657895"></polyline>
                    </g>
                    <g id="Slider" transform="translate(32.000000, 340.000000)">
                        <g id="Background" filter="url(#filter-10)" transform="translate(0.159496, 0.000000)" fill="#999999">
                            <g id="Drop-Down">
                                <path d="M0.731255002,0 L248.829003,0 C248.829003,0 248.829004,7.79448785 248.829003,42 L0.731255002,42 L0.731255002,0 Z" id="Rectangle-31-Copy-23"></path>
                            </g>
                        </g>
                        <use id="Rectangle-40-Copy-3" stroke="#000000" mask="url(#mask-12)" stroke-width="2" fill="#F8F8F8" xlink:href="#path-11"></use>
                    </g>
                    <ellipse id="Oval-Copy-2" stroke="#FFFFFF" fill="#000000" cx="31.9375" cy="365.710526" rx="26.9375" ry="27.7105263"></ellipse>
                    <text id="1" fill="#6B7986" font-family="HelveticaNeue-Medium, Helvetica Neue" font-size="7.22556739" font-weight="400" line-spacing="19" letter-spacing="1.89299865e-09">
                        <tspan x="76" y="369">1</tspan>
                    </text>
                    <text id="2" fill="#6B7986" font-family="HelveticaNeue-Medium, Helvetica Neue" font-size="7.22556739" font-weight="400" line-spacing="19" letter-spacing="1.89299865e-09">
                        <tspan x="124" y="369">2</tspan>
                    </text>
                    <text id="3" fill="#6B7986" font-family="HelveticaNeue-Medium, Helvetica Neue" font-size="7.22556739" font-weight="400" line-spacing="19" letter-spacing="1.89299865e-09">
                        <tspan x="173" y="369">3</tspan>
                    </text>
                    <text id="4" fill="#6B7986" font-family="HelveticaNeue-Medium, Helvetica Neue" font-size="7.22556739" font-weight="400" line-spacing="19" letter-spacing="1.89299865e-09">
                        <tspan x="222" y="369">4</tspan>
                    </text>
                    <text id="5" fill="#6B7986" font-family="HelveticaNeue-Medium, Helvetica Neue" font-size="7.22556739" font-weight="400" line-spacing="19" letter-spacing="1.89299865e-09">
                        <tspan x="267" y="369">5</tspan>
                    </text>
                </g>
                <g id="Page-1" transform="translate(6.000000, 0.000000)">
                    <polygon id="Fill-1" fill="#FFFFFF" points="228.666 218.976 308.749 218.976 308.749 192.52 228.666 192.52"></polygon>
                    <g id="Group-69" transform="translate(0.000000, 0.432000)">
                        <g id="Group-4" transform="translate(0.000000, 37.000000)">
                            <mask id="mask-14" fill="white">
                                <use xlink:href="#path-13"></use>
                            </mask>
                            <g id="Clip-3"></g>
                            <path d="M360.8753,21.9562 C360.8753,9.9862 329.1733,0.2482 289.9403,0.2482 C250.7173,0.2482 219.1423,9.9762 219.1423,21.9452 C219.1423,28.9282 243.0003,66.0052 264.0003,95.6402 L264.0003,95.6612 L273.9003,131.7892 C268.1503,135.2942 268.0003,140.0222 268.0003,140.0222 L268.0003,146.0002 L225.0003,146.0002 L225.0003,188.0002 L268.0003,188.0002 L268.0003,211.0002 L225.0003,211.0002 L225.0003,252.0002 L268.0003,252.0002 L268.0003,267.0002 L39.8733,267.0002 C17.0063,267.0002 -0.9997,284.9762 -0.9997,307.8432 L-0.9997,511.1892 C-0.9997,524.5322 9.2953,535.0002 22.6373,535.0002 L291.0633,535.0002 C304.4053,535.0002 315.2273,524.5322 315.2273,511.1892 L314.1553,140.0222 C314.1553,140.0222 314.1533,135.7912 309.2873,132.3672 L318.8423,97.4602 C337.9123,69.0382 360.8753,28.4662 360.8753,21.9562" id="Fill-2" fill="#000000" mask="url(#mask-14)"></path>
                            <g id="Icon_Goal" mask="url(#mask-14)">
                                <g transform="translate(10.000000, 87.568000)">
                                    <mask id="mask-16" fill="white">
                                        <use xlink:href="#path-15"></use>
                                    </mask>
                                    <g id="Clip-2" stroke="none" fill="none"></g>
                                    <path d="M17.734824,33.7601283 L17.734824,29.9074905 C23.9561971,29.4648365 28.9270742,24.0731062 28.9270742,17.5045941 C28.9270742,10.6475213 23.5411426,5.06888583 16.9165653,5.06888583 C10.2918398,5.06888583 4.89687241,10.6475213 4.89687241,17.5045941 C4.89687241,24.238239 10.0321715,29.734998 16.5498005,29.9311028 L16.5498005,33.7780675 C8.10650843,33.5813494 1.18686024,26.3572127 1.18686024,17.5045941 C1.18686024,8.52885417 8.24515617,1.22652091 16.9165653,1.22652091 C25.5879744,1.22652091 32.6373826,8.52885417 32.6373826,17.5045941 C32.6373826,26.19254 26.0299881,33.3124146 17.734824,33.7601283 L17.734824,33.7601283 Z M17.734824,24.4617892 C21.1417664,24.0370744 23.6867524,21.0801707 23.6867524,17.5045941 C23.6867524,13.6384635 20.6516111,10.4929681 16.9165653,10.4929681 C13.1813714,10.4929681 10.1371942,13.6384635 10.1371942,17.5045941 C10.1371942,21.2471434 12.9947302,24.3141356 16.5498005,24.5064072 L16.5498005,28.7044899 C10.7728112,28.5089984 6.08367339,23.5617619 6.08367339,17.5045941 C6.08367339,11.3239983 10.9452321,6.29549873 16.9165653,6.29549873 C22.8876022,6.29549873 27.7402732,11.3239983 27.7402732,17.5045941 C27.7402732,23.3963225 23.3636854,28.237457 17.734824,28.6776577 L17.734824,24.4617892 Z M17.1423122,16.6467317 C16.8150976,16.6467317 16.5498005,16.9213397 16.5498005,17.2600381 L16.5498005,23.2765744 C13.5872419,23.0858361 11.3239952,20.570513 11.3239952,17.5045941 C11.3239952,14.3147872 13.8347637,11.719581 16.9165653,11.719581 C19.9982188,11.719581 22.4999514,14.3147872 22.4999514,17.5045941 C22.4999514,20.4029271 20.4011267,22.8096949 17.734824,23.2255167 L17.734824,17.2600381 C17.734824,16.9213397 17.4695268,16.6467317 17.1423122,16.6467317 L17.1423122,16.6467317 Z M33.8241836,17.5045941 C33.8241836,7.85253048 26.2413667,-9.19959676e-05 16.9165653,-9.19959676e-05 C7.59176386,-9.19959676e-05 5.92511726e-05,7.85253048 5.92511726e-05,17.5045941 C5.92511726e-05,27.0335364 7.36586877,34.807809 16.5498005,35.0046804 L16.5498005,37.3337116 C16.5498005,37.6724101 16.8150976,37.9470181 17.1423122,37.9470181 C17.4695268,37.9470181 17.734824,37.6724101 17.734824,37.3337116 L17.734824,34.9881211 C26.6224999,34.5391808 33.8241836,26.869017 33.8241836,17.5045941 L33.8241836,17.5045941 Z" id="Fill-1" stroke="none" fill="#FFFFFF" fill-rule="evenodd" mask="url(#mask-16)"></path>
                                </g>
                            </g>
                        </g>
                        <path d="M352.239,56.0487 C352.239,64.2977 324.612,70.9847 290.531,70.9847 C256.451,70.9847 228.824,64.2977 228.824,56.0487 C228.824,47.7997 256.451,41.1127 290.531,41.1127 C324.612,41.1127 352.239,47.7997 352.239,56.0487" id="Fill-5" fill="#FFFFFF"></path>
                        <path d="M268.4393,53.7001 L271.1083,1.1811 L305.3863,2.5651 L302.0333,46.6711 C302.0333,46.6711 285.7243,59.9921 268.4393,53.7001" id="Fill-7" fill="#FFFFFF"></path>
                        <path d="M269.0513,53.2917 C284.6623,58.6937 299.5943,47.8037 301.4653,46.3667 L304.7523,3.1297 L271.6673,1.7937 L269.0513,53.2917 Z M278.0523,55.9607 C274.8833,55.9607 271.5753,55.4687 268.2383,54.2547 L267.8283,54.1057 L267.8513,53.6707 L270.5483,0.5687 L306.0213,2.0007 L302.6023,46.9677 L302.4063,47.1277 C302.2733,47.2367 291.4003,55.9607 278.0523,55.9607 L278.0523,55.9607 Z" id="Fill-9" fill="#000000"></path>
                        <path d="M276.492,32.3763 C278.181,37.9883 284.099,41.1693 289.712,39.4813 C295.324,37.7923 298.505,31.8733 296.816,26.2613 C295.128,20.6493 289.209,17.4683 283.597,19.1563 C277.984,20.8453 274.803,26.7643 276.492,32.3763" id="Fill-11" fill="#FFFFFF"></path>
                        <path d="M286.668,19.2916 C285.697,19.2916 284.722,19.4346 283.767,19.7216 C281.203,20.4926 279.094,22.2166 277.826,24.5736 C276.558,26.9316 276.285,29.6426 277.057,32.2056 L277.057,32.2066 C277.828,34.7696 279.552,36.8796 281.909,38.1476 C284.267,39.4136 286.98,39.6846 289.541,38.9166 C292.105,38.1446 294.215,36.4216 295.483,34.0636 C296.75,31.7056 297.023,28.9956 296.252,26.4316 C295.48,23.8676 293.757,21.7576 291.4,20.4906 C289.92,19.6956 288.301,19.2916 286.668,19.2916 M286.639,40.5266 C284.813,40.5266 283.005,40.0746 281.352,39.1856 C278.716,37.7696 276.789,35.4116 275.928,32.5456 L275.928,32.5466 C275.066,29.6806 275.371,26.6506 276.787,24.0166 C278.203,21.3806 280.562,19.4536 283.428,18.5926 C286.295,17.7286 289.321,18.0356 291.957,19.4516 C294.593,20.8676 296.519,23.2266 297.38,26.0926 C298.243,28.9576 297.938,31.9866 296.521,34.6216 C295.105,37.2576 292.747,39.1836 289.881,40.0446 C288.813,40.3666 287.723,40.5266 286.639,40.5266" id="Fill-13" fill="#000000"></path>
                        <polygon id="Fill-15" fill="#000000" points="271.3117 54.4351 270.1347 54.3571 273.5037 4.4261 302.7427 5.4451 299.8557 48.7731 298.6797 48.6951 301.4857 6.5801 274.6027 5.6441"></polygon>
                        <path d="M302.3225,53.2974 L320.0095,3.7744 L352.4355,14.9754 L336.5175,56.2454 C336.5175,56.2454 317.0615,64.3024 302.3225,53.2974" id="Fill-17" fill="#FFFFFF"></path>
                        <path d="M303.025,53.0821 C316.434,62.7641 333.856,56.6291 336.06,55.7901 L351.665,15.3341 L320.369,4.5211 L303.025,53.0821 Z M320.962,59.6431 C314.926,59.6431 308.037,58.3011 301.97,53.7691 L301.621,53.5091 L319.65,3.0271 L353.206,14.6181 L336.977,56.6931 L336.743,56.7901 C336.626,56.8381 329.683,59.6431 320.962,59.6431 L320.962,59.6431 Z" id="Fill-19" fill="#000000"></path>
                        <path d="M316.1773,35.1978 C316.1773,41.0588 320.9283,45.8098 326.7893,45.8098 C332.6503,45.8098 337.4013,41.0588 337.4013,35.1978 C337.4013,29.3368 332.6503,24.5858 326.7893,24.5858 C320.9283,24.5858 316.1773,29.3368 316.1773,35.1978" id="Fill-21" fill="#FFFFFF"></path>
                        <path d="M326.7895,25.1757 C321.2635,25.1757 316.7665,29.6727 316.7665,35.1987 C316.7665,40.7247 321.2635,45.2207 326.7895,45.2207 C332.3155,45.2207 336.8125,40.7247 336.8125,35.1987 C336.8125,29.6727 332.3155,25.1757 326.7895,25.1757 M326.7895,46.3997 C320.6125,46.3997 315.5875,41.3747 315.5875,35.1987 C315.5875,29.0217 320.6125,23.9967 326.7895,23.9967 C332.9665,23.9967 337.9915,29.0217 337.9915,35.1987 C337.9915,41.3747 332.9665,46.3997 326.7895,46.3997" id="Fill-23" fill="#000000"></path>
                        <polygon id="Fill-25" fill="#000000" points="333.8262 57.6317 332.7232 57.2167 347.5432 17.6967 322.0702 9.0547 304.8612 54.8287 303.7582 54.4147 321.3682 7.5717 349.0742 16.9717"></polygon>
                        <path d="M283.4565,56.8348 L301.1435,7.3118 L333.5695,18.5128 L317.6515,59.7828 C317.6515,59.7828 298.1955,67.8398 283.4565,56.8348" id="Fill-27" fill="#FFFFFF"></path>
                        <path d="M284.1589,56.6194 C297.5679,66.3004 314.9909,60.1664 317.1939,59.3274 L332.7989,18.8714 L301.5029,8.0584 L284.1589,56.6194 Z M302.0959,63.1804 C296.0599,63.1804 289.1709,61.8384 283.1039,57.3064 L282.7549,57.0464 L300.7839,6.5644 L334.3399,18.1554 L318.1109,60.2304 L317.8769,60.3274 C317.7599,60.3754 310.8169,63.1804 302.0959,63.1804 L302.0959,63.1804 Z" id="Fill-29" fill="#000000"></path>
                        <path d="M297.3112,38.7352 C297.3112,44.5962 302.0622,49.3472 307.9232,49.3472 C313.7842,49.3472 318.5352,44.5962 318.5352,38.7352 C318.5352,32.8742 313.7842,28.1232 307.9232,28.1232 C302.0622,28.1232 297.3112,32.8742 297.3112,38.7352" id="Fill-31" fill="#FFFFFF"></path>
                        <path d="M307.9234,28.7131 C302.3974,28.7131 297.9004,33.2101 297.9004,38.7361 C297.9004,44.2621 302.3974,48.7581 307.9234,48.7581 C313.4494,48.7581 317.9464,44.2621 317.9464,38.7361 C317.9464,33.2101 313.4494,28.7131 307.9234,28.7131 M307.9234,49.9371 C301.7464,49.9371 296.7214,44.9121 296.7214,38.7361 C296.7214,32.5591 301.7464,27.5341 307.9234,27.5341 C314.1004,27.5341 319.1254,32.5591 319.1254,38.7361 C319.1254,44.9121 314.1004,49.9371 307.9234,49.9371" id="Fill-33" fill="#000000"></path>
                        <polygon id="Fill-35" fill="#000000" points="314.9602 61.169 313.8572 60.754 328.6772 21.234 303.2042 12.592 285.9952 58.366 284.8922 57.952 302.5022 11.109 330.2082 20.509"></polygon>
                        <path d="M275.7922,52.1183 L258.1052,2.5953 L225.6792,13.7963 L241.5972,55.0663 C241.5972,55.0663 261.0532,63.1233 275.7922,52.1183" id="Fill-37" fill="#FFFFFF"></path>
                        <path d="M242.0535,54.6113 C244.2595,55.4483 261.6945,61.5733 275.0895,51.9033 L257.7465,3.3423 L226.4495,14.1543 L242.0535,54.6113 Z M257.1535,58.4643 C248.4305,58.4643 241.4895,55.6593 241.3715,55.6113 L241.1385,55.5143 L224.9085,13.4383 L258.4645,1.8473 L276.4935,52.3303 L276.1445,52.5903 C270.0785,57.1203 263.1895,58.4643 257.1535,58.4643 L257.1535,58.4643 Z" id="Fill-39" fill="#000000"></path>
                        <path d="M261.9374,34.0187 C261.9374,39.8797 257.1864,44.6307 251.3254,44.6307 C245.4644,44.6307 240.7134,39.8797 240.7134,34.0187 C240.7134,28.1577 245.4644,23.4067 251.3254,23.4067 C257.1864,23.4067 261.9374,28.1577 261.9374,34.0187" id="Fill-41" fill="#FFFFFF"></path>
                        <path d="M251.3253,23.9965 C245.7993,23.9965 241.3023,28.4935 241.3023,34.0195 C241.3023,39.5455 245.7993,44.0415 251.3253,44.0415 C256.8513,44.0415 261.3483,39.5455 261.3483,34.0195 C261.3483,28.4935 256.8513,23.9965 251.3253,23.9965 M251.3253,45.2205 C245.1483,45.2205 240.1233,40.1955 240.1233,34.0195 C240.1233,27.8425 245.1483,22.8175 251.3253,22.8175 C257.5023,22.8175 262.5273,27.8425 262.5273,34.0195 C262.5273,40.1955 257.5023,45.2205 251.3253,45.2205" id="Fill-43" fill="#000000"></path>
                        <polygon id="Fill-45" fill="#000000" points="244.2885 56.4525 229.0405 15.7925 256.7465 6.3925 274.3565 53.2355 273.2535 53.6495 256.0445 7.8755 230.5715 16.5175 245.3915 56.0375"></polygon>
                        <path d="M294.6582,63.9096 L276.9712,14.3866 L244.5452,25.5876 L260.4632,66.8576 C260.4632,66.8576 279.9192,74.9146 294.6582,63.9096" id="Fill-47" fill="#FFFFFF"></path>
                        <path d="M260.9195,66.4026 C263.1265,67.2396 280.5595,73.3646 293.9555,63.6946 L276.6125,15.1336 L245.3155,25.9456 L260.9195,66.4026 Z M276.0195,70.2556 C267.2965,70.2556 260.3555,67.4506 260.2375,67.4016 L260.0045,67.3056 L243.7745,25.2296 L277.3305,13.6386 L295.3595,64.1216 L295.0105,64.3816 C288.9445,68.9116 282.0555,70.2556 276.0195,70.2556 L276.0195,70.2556 Z" id="Fill-49" fill="#000000"></path>
                        <path d="M280.8035,45.8099 C280.8035,51.6709 276.0525,56.4219 270.1915,56.4219 C264.3305,56.4219 259.5795,51.6709 259.5795,45.8099 C259.5795,39.9489 264.3305,35.1979 270.1915,35.1979 C276.0525,35.1979 280.8035,39.9489 280.8035,45.8099" id="Fill-51" fill="#FFFFFF"></path>
                        <path d="M270.1913,35.7878 C264.6653,35.7878 260.1683,40.2848 260.1683,45.8108 C260.1683,51.3368 264.6653,55.8328 270.1913,55.8328 C275.7173,55.8328 280.2143,51.3368 280.2143,45.8108 C280.2143,40.2848 275.7173,35.7878 270.1913,35.7878 M270.1913,57.0118 C264.0143,57.0118 258.9893,51.9868 258.9893,45.8108 C258.9893,39.6338 264.0143,34.6088 270.1913,34.6088 C276.3683,34.6088 281.3933,39.6338 281.3933,45.8108 C281.3933,51.9868 276.3683,57.0118 270.1913,57.0118" id="Fill-53" fill="#000000"></path>
                        <polygon id="Fill-55" fill="#000000" points="263.1545 68.2438 247.9065 27.5838 275.6125 18.1838 293.2225 65.0268 292.1195 65.4408 274.9105 19.6668 249.4375 28.3088 264.2575 67.8288"></polygon>
                        <path d="M349.5062,68.388 C341.3262,75.577 318.1062,79.468 303.6832,80.806 C297.1612,81.411 292.1372,86.818 291.9652,93.366 C291.5942,107.556 291.1092,129.393 291.5892,131.311 C292.2912,134.12 310.9302,131.41 311.5912,131.313 C311.6032,131.312 311.6132,131.306 311.6192,131.296 C312.4122,130.122 360.7392,58.516 349.5062,68.388" id="Fill-57" fill="#999999"></path>
                        <path d="M296.9514,171.7389 C302.2214,172.0899 301.9674,169.0029 301.9574,168.8959 C301.9564,168.8919 301.9574,168.8909 301.9584,168.8869 L309.8094,136.0679 C309.8164,136.0419 309.7964,136.0169 309.7694,136.0169 L291.6304,136.0169 C291.6074,136.0169 291.5884,136.0309 291.5884,136.0539 C291.5904,137.3359 291.6894,171.3879 296.9514,171.7389" id="Fill-59" fill="#999999"></path>
                        <path d="M268.805,129.6613 C269.213,130.3013 269.983,130.6773 270.716,130.4793 C271.741,130.2023 272.272,129.0093 271.719,128.0453 L240.121,73.0043 C239.884,72.5923 239.483,72.3013 239.018,72.2043 L235.03,71.3733 C233.589,71.0733 232.497,72.6543 233.288,73.8953 L268.805,129.6613 Z" id="Fill-61" fill="#999999"></path>
                        <path d="M277.7063,137.1027 C277.5053,136.3127 276.7733,135.7767 275.9593,135.8217 L273.0893,135.9807 C271.9863,136.0427 271.2323,137.1197 271.5513,138.1767 L280.9523,169.2987 C281.1573,169.9757 281.7583,170.4557 282.4633,170.5067 L283.9963,170.6157 C285.1293,170.6967 286.0083,169.6447 285.7273,168.5457 L277.7063,137.1027 Z" id="Fill-63" fill="#999999"></path>
                        <path d="M273.969,189.734 L231.032,189.734 C230.17,189.734 229.472,190.432 229.472,191.293 L229.472,198.084 C229.472,198.945 230.17,199.643 231.032,199.643 L274.026,199.643 C274.886,199.643 275.583,200.338 275.586,201.197 L275.758,251.274 C275.761,252.137 275.062,252.839 274.198,252.839 L231.032,252.839 C230.17,252.839 229.472,253.537 229.472,254.398 L229.472,262.232 C229.472,263.093 230.17,263.791 231.032,263.791 L274.245,263.791 C274.854,264.397 275.196,264.739 275.805,265.345 L275.963,312.856 C275.966,313.696 275.286,314.379 274.445,314.379 L270.11,314.379 L41.915,314.379 C32.792,314.379 24.388,318.282 18.688,324.273 L274.933,325.333 L276.519,549.053 L276.519,549.053 C276.522,549.916 275.823,550.617 274.96,550.617 L12.099,550.617 C11.158,550.617 10.43,551.446 10.549,552.379 C11.437,559.359 17.217,564.699 24.679,564.699 L276.57,564.699 C278.786,564.699 280.582,562.902 280.582,560.687 L280.582,550.617 L280.582,336.283 L280.582,314.463 L280.582,177.941 C280.582,177.205 280.064,176.569 279.344,176.415 C278.541,176.243 277.833,176.099 277.245,175.984 C276.273,175.792 275.374,176.544 275.387,177.535 L275.528,188.154 C275.54,189.023 274.838,189.734 273.969,189.734" id="Fill-65" fill="#999999"></path>
                        <path d="M298.8355,563.3937 C298.8355,563.4287 298.8715,563.4487 298.8995,563.4277 C299.9755,562.5817 302.3635,561.4217 303.7745,560.0257 C306.8725,556.9127 308.7445,552.6257 308.7445,547.8847 L308.7445,175.3487 C308.7445,175.3197 308.7135,175.2997 308.6865,175.3107 C305.0785,176.7517 302.4845,177.5367 298.8735,177.9017 C298.8525,177.9037 298.8355,177.9217 298.8355,177.9427 L298.8355,563.3937 Z" id="Fill-67" fill="#999999"></path>
                    </g>
                </g>
                <g id="Icon_Disc" transform="translate(20.000000, 195.000000)" fill="#FFFFFF">
                    <path d="M24.7604412,10.0488722 L24.7604412,15.3834586 L17.822068,15.3834586 C17.5600102,15.3834586 17.2967676,15.1503496 17.2967676,14.8759286 L17.2967676,10.5422594 C17.2967676,10.2678383 17.5600102,10.0488722 17.822068,10.0488722 L24.7604412,10.0488722 Z M24.7604412,22.0921353 C24.7604412,22.2902594 24.655002,22.4548872 24.4659223,22.4548872 L0.947768086,22.4548872 L0.947768086,15.1292594 L0.947768086,4.21804511 L24.4659223,4.21804511 C24.655002,4.21804511 24.7604412,4.36815789 24.7604412,4.56628195 L24.7604412,9.05639098 L17.822068,9.05639098 C17.0374345,9.05639098 16.3489995,9.72060902 16.3489995,10.5422594 L16.3489995,14.8759286 C16.3489995,15.6975789 17.0374345,16.3759398 17.822068,16.3759398 L24.7604412,16.3759398 L24.7604412,17.4140752 L24.7604412,22.0921353 Z M2.21422319,0.992481203 L23.0601453,0.992481203 C24.0244993,0.992481203 24.7604412,1.82219549 24.7604412,2.83204511 L24.7604412,3.26439474 C24.6419702,3.2327594 24.5848672,3.22556391 24.4659223,3.22556391 L0.947768086,3.22556391 L0.947768086,2.33443985 C0.947768086,1.59913534 1.51204551,0.992481203 2.21422319,0.992481203 L2.21422319,0.992481203 Z M23.0601453,0 L2.21422319,0 C0.989469882,0 0,1.05190602 0,2.33443985 L0,3.7106391 L0,15.1292594 L0,22.9477782 C0,23.2218271 0.204954849,23.4473684 0.466657311,23.4473684 L24.4659223,23.4473684 C25.1776961,23.4473684 25.7082093,22.8376128 25.7082093,22.0921353 L25.7082093,17.4140752 L25.7082093,4.56628195 L25.7082093,2.83204511 C25.7082093,1.27496617 24.5470749,0 23.0601453,0 L23.0601453,0 Z" id="Fill-1"></path>
                    <path d="M20.0542277,12.1203417 C20.3642664,12.1203417 20.6164911,12.3844658 20.6164911,12.7090071 C20.6164911,13.0336726 20.3642664,13.2977966 20.0542277,13.2977966 C19.7441891,13.2977966 19.4919643,13.0336726 19.4919643,12.7090071 C19.4919643,12.3844658 19.7441891,12.1203417 20.0542277,12.1203417 M20.0542277,14.2902778 C20.886842,14.2902778 21.5642592,13.5809019 21.5642592,12.7090071 C21.5642592,11.8372365 20.886842,11.1278605 20.0542277,11.1278605 C19.2216135,11.1278605 18.5441962,11.8372365 18.5441962,12.7090071 C18.5441962,13.5809019 19.2216135,14.2902778 20.0542277,14.2902778" id="Fill-3"></path>
                </g>
                <ellipse id="Oval-Copy-2" stroke="#FFFFFF" fill="#000000" cx="29.9375" cy="548.710526" rx="26.9375" ry="27.7105263"></ellipse>
                <g id="Icon_time" transform="translate(17.000000, 535.000000)">
                    <g id="Group-3" transform="translate(0.000000, 0.002717)">
                        <mask id="mask-18" fill="white">
                            <use xlink:href="#path-17"></use>
                        </mask>
                        <g id="Clip-2"></g>
                        <path d="M13.4158899,1.35584151 C6.6778519,1.35584151 1.19616835,6.80304906 1.19616835,13.4987094 C1.19616835,20.1943698 6.6778519,25.6415774 13.4158899,25.6415774 C20.153757,25.6415774 25.6354405,20.1943698 25.6354405,13.4987094 C25.6354405,6.80304906 20.153757,1.35584151 13.4158899,1.35584151 M13.4158899,26.8302566 C6.01840253,26.8302566 -3.41772152e-05,20.8496717 -3.41772152e-05,13.4987094 C-3.41772152e-05,6.14774717 6.01840253,0.167162264 13.4158899,0.167162264 C20.8133772,0.167162264 26.831643,6.14774717 26.831643,13.4987094 C26.831643,20.8496717 20.8133772,26.8302566 13.4158899,26.8302566" id="Fill-1" fill="#FFFFFF" mask="url(#mask-18)"></path>
                    </g>
                    <polygon id="Fill-4" fill="#FFFFFF" points="21.4720747 16.6115547 12.1341759 16.6115547 12.1341759 6.08376226 13.3303785 6.08376226 13.3303785 15.4228755 21.4720747 15.4228755"></polygon>
                </g>
                <g id="Icon_Sus" transform="translate(21.000000, 250.000000)">
                    <path d="M2.60677682,32.7930872 C2.32655699,32.7930872 2.08544782,32.6128213 2.03168897,32.3296108 C2.01396466,32.2366141 1.60088577,30.0304665 1.75703545,27.2609124 C1.96738343,23.5307942 3.13118193,20.6070495 5.12274952,18.7944423 C5.36503054,18.5739331 5.73562969,18.6003098 5.94978619,18.8496073 C6.16423566,19.0990556 6.14153097,19.4814424 5.89924994,19.7021024 C2.2246056,23.0466686 2.84993673,29.7686588 3.10628001,31.6332658 L20.1391926,31.5915152 C20.4541286,29.4453558 20.5909427,26.455594 19.7108795,23.5616926 C19.0399926,21.3556957 17.8107167,19.678288 16.1564968,18.7106398 C14.7868913,17.9095415 13.2403356,17.7719305 11.6026683,17.6261804 C10.2690973,17.5074098 8.88997041,17.3845697 7.57104759,16.8813022 C4.39414867,15.6690289 2.36654654,12.7752782 1.86162351,8.73346268 C1.83042287,8.48250717 1.76758215,7.0657013 1.7606975,5.70692418 C1.7453169,2.76554477 1.99199238,2.47705898 2.15517319,2.28639308 C2.28803225,2.13084588 2.46761903,2.04538536 2.66082863,2.04538536 L20.5839115,2.04538536 C20.8592975,2.04538536 21.0976235,2.24298456 21.1563627,2.5198646 C21.1759913,2.6127106 21.6355049,4.82262631 21.4967866,7.55841815 C21.3095827,11.2504032 20.1018397,14.1153656 18.0040727,15.8435673 C17.7518309,16.0518679 17.3828431,16.0098159 17.1805516,15.7498169 C16.9782602,15.489818 17.0191286,15.1105963 17.2716633,14.9024464 C21.1144689,11.7364882 20.3814736,5.08262526 20.0943691,3.25117759 L3.02600795,3.25117759 C2.85301285,4.35643689 2.95921221,8.04661328 3.02410368,8.57987489 C3.28264419,10.6505216 4.270225,14.3357241 7.97841369,15.750872 C9.14880388,16.1974673 10.3897983,16.307948 11.7037408,16.4247591 C13.3947275,16.5753324 15.1432817,16.7311811 16.7355397,17.6623541 C18.652548,18.7837409 20.0680024,20.6992926 20.8291222,23.2017636 C21.8498079,26.5574834 21.6025465,29.9997188 21.2152484,32.2966022 C21.1666164,32.5849373 20.9237495,32.7718351 20.6392817,32.7725887 L2.60824164,32.7930872 L2.60677682,32.7930872 Z" id="Fill-1" fill="#FFFFFF"></path>
                    <g id="Group-5" transform="translate(0.000000, 33.373616)">
                        <mask id="mask-20" fill="white">
                            <use xlink:href="#path-19"></use>
                        </mask>
                        <g id="Clip-4"></g>
                        <path d="M23.7714011,1.20579223 L0.5859568,1.20579223 C0.262378336,1.20579223 2.92963752e-05,0.935845493 2.92963752e-05,0.602896114 C2.92963752e-05,0.269946735 0.262378336,0 0.5859568,0 L23.7714011,0 C24.0949796,0 24.3573286,0.269946735 24.3573286,0.602896114 C24.3573286,0.935845493 24.0949796,1.20579223 23.7714011,1.20579223" id="Fill-3" fill="#FFFFFF" mask="url(#mask-20)"></path>
                    </g>
                    <path d="M22.2340592,1.2058073 L0.938816991,1.2058073 C0.615238527,1.2058073 0.352889487,0.935860566 0.352889487,0.602911187 C0.352889487,0.269961808 0.615238527,1.5072403e-05 0.938816991,1.5072403e-05 L22.2340592,1.5072403e-05 C22.5576376,1.5072403e-05 22.8199867,0.269961808 22.8199867,0.602911187 C22.8199867,0.935860566 22.5576376,1.2058073 22.2340592,1.2058073" id="Fill-6" fill="#FFFFFF"></path>
                    <path d="M5.204545,7.73184122 C5.50219617,11.2168822 8.35449126,13.9596074 11.8174693,13.9596074 C15.2803008,13.9596074 18.1325959,11.2168822 18.4302471,7.73184122 L5.204545,7.73184122 Z M11.8174693,15.1653996 C7.51075565,15.1653996 4.00705566,11.5602315 4.00705566,7.1289451 C4.00705566,6.79599572 4.2694047,6.52604899 4.59298317,6.52604899 L19.0418089,6.52604899 C19.3653874,6.52604899 19.6277364,6.79599572 19.6277364,7.1289451 C19.6277364,11.5602315 16.1240364,15.1653996 11.8174693,15.1653996 L11.8174693,15.1653996 Z" id="Fill-8" fill="#FFFFFF"></path>
                    <path d="M11.9066621,23.6377781 L6.74390839,29.1544283 L17.0694158,29.018023 L11.9066621,23.6377781 Z M5.34896148,30.3814726 C5.11561585,30.3814726 4.9042425,30.2373804 4.811373,30.0165697 C4.71747811,29.7934982 4.76303398,29.5333485 4.92709368,29.3582072 L11.4793745,22.3918933 C11.5889429,22.2747807 11.7396728,22.242375 11.8975802,22.242375 L11.9013888,22.242375 C12.0579779,22.242375 12.2082683,22.2713141 12.3184227,22.3861658 L18.8708499,29.1969324 C19.035935,29.3689086 19.0851529,29.6168496 18.995799,29.840524 C18.906738,30.0641985 18.69639,30.2084414 18.4614331,30.2114559 L5.35657854,30.3814726 L5.34896148,30.3814726 Z" id="Fill-10" fill="#FFFFFF"></path>
                </g>
            </g>
        </g>
    </g>
</svg>