<svg xmlns="http://www.w3.org/2000/svg" viewBox="0 0 68 59"><defs><style>.cls-1{fill:#fff;}</style></defs><title>Discretion</title><g id="Layer_2" data-name="Layer 2"><g id="Icon"><path class="cls-1" d="M61,0H5.71A5.54,5.54,0,0,0,0,5.45V57.69C0,58.24.52,59,1.07,59H60a8.23,8.23,0,0,0,8-8.21V6.71A6.8,6.8,0,0,0,61,0Zm5,50.79A6.23,6.23,0,0,1,60,57H2V10H60a5.91,5.91,0,0,1,6,5.83V23H52.62a9,9,0,1,0,0,18H66v9.79ZM66,25V39H52.62a7,7,0,1,1,0-14ZM60,8H2V5.45A3.54,3.54,0,0,1,5.71,2H61a4.8,4.8,0,0,1,5,4.71V10.6C64,9,62.38,8,60,8Z"/><path class="cls-1" d="M49.3,31.74A3.75,3.75,0,1,0,53.05,28,3.75,3.75,0,0,0,49.3,31.74ZM53.05,30a1.75,1.75,0,1,1-1.75,1.75A1.75,1.75,0,0,1,53.05,30Z"/><path class="cls-1" d="M58.95,4H5.34a1,1,0,1,0,0,2h53.6a1,1,0,0,0,0-2Z"/></g></g></svg>