<?xml version="1.0" encoding="UTF-8" standalone="no"?>
<svg width="34px" height="38px" viewBox="0 0 34 38" version="1.1" xmlns="http://www.w3.org/2000/svg" xmlns:xlink="http://www.w3.org/1999/xlink">
    <!-- Generator: Sketch 39.1 (31720) - http://www.bohemiancoding.com/sketch -->
    <title>Icon_Goal</title>
    <desc>Created with Sketch.</desc>
    <defs>
        <polygon id="path-1" points="5.92511726e-05 37.9469568 33.8241244 37.9469568 33.8241244 0 5.92511726e-05 0 5.92511726e-05 37.9469568"></polygon>
    </defs>
    <g id="Screens" stroke="none" stroke-width="1" fill="none" fill-rule="evenodd">
        <g id="Base-App" transform="translate(-27.000000, -202.000000)">
            <g id="Income/Goals" transform="translate(17.000000, 192.000000)">
                <g id="Icon_Goal" transform="translate(10.000000, 10.000000)">
                    <mask id="mask-2" fill="white">
                        <use xlink:href="#path-1"></use>
                    </mask>
                    <g id="Clip-2"></g>
                    <path d="M17.734824,33.7601283 L17.734824,29.9074905 C23.9561971,29.4648365 28.9270742,24.0731062 28.9270742,17.5045941 C28.9270742,10.6475213 23.5411426,5.06888583 16.9165653,5.06888583 C10.2918398,5.06888583 4.89687241,10.6475213 4.89687241,17.5045941 C4.89687241,24.238239 10.0321715,29.734998 16.5498005,29.9311028 L16.5498005,33.7780675 C8.10650843,33.5813494 1.18686024,26.3572127 1.18686024,17.5045941 C1.18686024,8.52885417 8.24515617,1.22652091 16.9165653,1.22652091 C25.5879744,1.22652091 32.6373826,8.52885417 32.6373826,17.5045941 C32.6373826,26.19254 26.0299881,33.3124146 17.734824,33.7601283 L17.734824,33.7601283 Z M17.734824,24.4617892 C21.1417664,24.0370744 23.6867524,21.0801707 23.6867524,17.5045941 C23.6867524,13.6384635 20.6516111,10.4929681 16.9165653,10.4929681 C13.1813714,10.4929681 10.1371942,13.6384635 10.1371942,17.5045941 C10.1371942,21.2471434 12.9947302,24.3141356 16.5498005,24.5064072 L16.5498005,28.7044899 C10.7728112,28.5089984 6.08367339,23.5617619 6.08367339,17.5045941 C6.08367339,11.3239983 10.9452321,6.29549873 16.9165653,6.29549873 C22.8876022,6.29549873 27.7402732,11.3239983 27.7402732,17.5045941 C27.7402732,23.3963225 23.3636854,28.237457 17.734824,28.6776577 L17.734824,24.4617892 Z M17.1423122,16.6467317 C16.8150976,16.6467317 16.5498005,16.9213397 16.5498005,17.2600381 L16.5498005,23.2765744 C13.5872419,23.0858361 11.3239952,20.570513 11.3239952,17.5045941 C11.3239952,14.3147872 13.8347637,11.719581 16.9165653,11.719581 C19.9982188,11.719581 22.4999514,14.3147872 22.4999514,17.5045941 C22.4999514,20.4029271 20.4011267,22.8096949 17.734824,23.2255167 L17.734824,17.2600381 C17.734824,16.9213397 17.4695268,16.6467317 17.1423122,16.6467317 L17.1423122,16.6467317 Z M33.8241836,17.5045941 C33.8241836,7.85253048 26.2413667,-9.19959676e-05 16.9165653,-9.19959676e-05 C7.59176386,-9.19959676e-05 5.92511726e-05,7.85253048 5.92511726e-05,17.5045941 C5.92511726e-05,27.0335364 7.36586877,34.807809 16.5498005,35.0046804 L16.5498005,37.3337116 C16.5498005,37.6724101 16.8150976,37.9470181 17.1423122,37.9470181 C17.4695268,37.9470181 17.734824,37.6724101 17.734824,37.3337116 L17.734824,34.9881211 C26.6224999,34.5391808 33.8241836,26.869017 33.8241836,17.5045941 L33.8241836,17.5045941 Z" id="Fill-1" fill="#FFFFFF" mask="url(#mask-2)"></path>
                </g>
            </g>
        </g>
    </g>
</svg>