<svg xmlns="http://www.w3.org/2000/svg" xmlns:xlink="http://www.w3.org/1999/xlink" viewBox="0 0 174.96 357.2"><defs><style>.cls-1,.cls-2{fill:none;}.cls-1{clip-rule:evenodd;}.cls-3{clip-path:url(#clip-path);}.cls-4{clip-path:url(#clip-path-2);}.cls-5{fill:#fff;}</style><clipPath id="clip-path"><path class="cls-1" d="M166.63,60.55l-34.1,43.22a7.89,7.89,0,0,0-1.7,4.89v219a24.57,24.57,0,0,1-24.6,24.54H14.07a7.92,7.92,0,0,1-7.93-7.91V323.59a7.92,7.92,0,0,1,7.93-7.91H84a7.92,7.92,0,0,0,7.93-7.91V275.51A7.92,7.92,0,0,0,84,267.61H12.93A7.92,7.92,0,0,1,5,259.7V239a7.92,7.92,0,0,1,7.93-7.91H84a7.92,7.92,0,0,0,7.93-7.91V192.56A7.92,7.92,0,0,0,84,184.66H12.93A7.92,7.92,0,0,1,5,176.75V156a7.92,7.92,0,0,1,7.93-7.91H84a7.92,7.92,0,0,0,7.93-7.91V109.15a7.89,7.89,0,0,0-1.87-5.1L53.3,60.59a15.41,15.41,0,0,1,7.42-24.75,171.71,171.71,0,0,1,48.19-6.57,176.47,176.47,0,0,1,50.06,7,15.4,15.4,0,0,1,7.66,24.31"/></clipPath><clipPath id="clip-path-2"><rect class="cls-2" x="-134" y="-43.73" width="320" height="914"/></clipPath></defs><title>Pipe_Background</title><g id="Layer_2" data-name="Layer 2"><g id="Icon"><g class="cls-3"><g class="cls-4"><rect y="24.27" width="174.96" height="332.94"/></g></g><ellipse class="cls-5" cx="110" cy="47.05" rx="52.33" ry="12.67"/><path class="cls-5" d="M91.26,45.06,93.53.52,122.6,1.69,119.75,39.1S105.92,50.4,91.26,45.06Z"/><path d="M99.42,47a24.18,24.18,0,0,1-8.32-1.45l-.35-.13,0-.37L93.05,0l30.08,1.21-2.9,38.14-.17.14C120,39.58,110.74,47,99.42,47Zm-7.63-2.26c13.24,4.58,25.9-4.65,27.49-5.87l2.79-36.67L94,1Z"/><circle class="cls-5" cx="106.71" cy="24.38" r="9" transform="translate(-2.5 31.78) rotate(-16.74)"/><path d="M106.7,33.89a9.51,9.51,0,0,1-9.08-6.77h0a9.5,9.5,0,1,1,11.83,6.36A9.53,9.53,0,0,1,106.7,33.89Zm0-18a8.54,8.54,0,0,0-2.46.36,8.5,8.5,0,0,0-5.69,10.59h0a8.5,8.5,0,1,0,8.15-11Z"/><polygon points="93.7 45.68 92.7 45.62 95.56 3.27 120.36 4.14 117.91 40.88 116.91 40.81 119.29 5.1 96.49 4.3 93.7 45.68"/><path class="cls-5" d="M120,44.72l15-42,27.5,9.5-13.5,35S132.5,54.05,120,44.72Z"/><path d="M135.81,50.1a26.48,26.48,0,0,1-16.11-5l-.3-.22L134.7,2.08l28.46,9.83L149.39,47.6l-.2.08A39.2,39.2,0,0,1,135.81,50.1ZM120.6,44.54c11.37,8.21,26.15,3,28,2.3l13.23-34.31L135.3,3.35Z"/><circle class="cls-5" cx="140.75" cy="29.37" r="9"/><path d="M140.75,38.87a9.5,9.5,0,1,1,9.5-9.5A9.51,9.51,0,0,1,140.75,38.87Zm0-18a8.5,8.5,0,1,0,8.5,8.5A8.51,8.51,0,0,0,140.75,20.87Z"/><polygon points="146.72 48.4 145.78 48.04 158.35 14.53 136.75 7.2 122.15 46.02 121.22 45.67 136.15 5.94 159.65 13.91 146.72 48.4"/><path class="cls-5" d="M104,47.72l15-42,27.5,9.5-13.5,35S116.5,57.05,104,47.72Z"/><path d="M119.81,53.1a26.48,26.48,0,0,1-16.11-5l-.3-.22L118.7,5.08l28.46,9.83L133.39,50.6l-.2.08A39.2,39.2,0,0,1,119.81,53.1ZM104.6,47.54c11.37,8.21,26.15,3,28,2.3l13.23-34.31L119.3,6.35Z"/><circle class="cls-5" cx="124.75" cy="32.37" r="9"/><path d="M124.75,41.87a9.5,9.5,0,1,1,9.5-9.5A9.51,9.51,0,0,1,124.75,41.87Zm0-18a8.5,8.5,0,1,0,8.5,8.5A8.51,8.51,0,0,0,124.75,23.87Z"/><polygon points="130.72 51.4 129.78 51.04 142.35 17.53 120.75 10.2 106.15 49.02 105.22 48.67 120.15 8.94 143.65 16.91 130.72 51.4"/><path class="cls-5" d="M97.5,43.72l-15-42L55,11.22l13.5,35S85,53.05,97.5,43.72Z"/><path d="M81.69,49.1a39.19,39.19,0,0,1-13.38-2.42l-.2-.08L54.35,10.92,82.8,1.08,98.09,43.9l-.3.22A26.49,26.49,0,0,1,81.69,49.1ZM68.89,45.83c1.87.71,16.66,5.9,28-2.3L82.2,2.35,55.65,11.52Z"/><circle class="cls-5" cx="76.75" cy="28.37" r="9"/><path d="M76.75,37.87a9.5,9.5,0,1,1,9.5-9.5A9.51,9.51,0,0,1,76.75,37.87Zm0-18a8.5,8.5,0,1,0,8.5,8.5A8.51,8.51,0,0,0,76.75,19.87Z"/><polygon points="70.78 47.4 57.85 12.91 81.35 4.94 96.28 44.67 95.35 45.02 80.75 6.2 59.15 13.53 71.72 47.04 70.78 47.4"/><path class="cls-5" d="M113.5,53.72l-15-42L71,21.22l13.5,35S101,63.05,113.5,53.72Z"/><path d="M97.69,59.1a39.19,39.19,0,0,1-13.38-2.42l-.2-.08L70.35,20.92,98.8,11.08,114.09,53.9l-.3.22A26.49,26.49,0,0,1,97.69,59.1ZM84.89,55.83c1.87.71,16.66,5.9,28-2.3L98.2,12.35,71.65,21.52Z"/><circle class="cls-5" cx="92.75" cy="38.37" r="9"/><path d="M92.75,47.87a9.5,9.5,0,1,1,9.5-9.5A9.51,9.51,0,0,1,92.75,47.87Zm0-18a8.5,8.5,0,1,0,8.5,8.5A8.51,8.51,0,0,0,92.75,29.87Z"/><polygon points="86.78 57.4 73.85 22.91 97.35 14.94 112.28 54.67 111.35 55.02 96.75 16.2 75.15 23.53 87.72 57.04 86.78 57.4"/></g></g></svg>