<svg xmlns="http://www.w3.org/2000/svg" viewBox="0 0 120.9 278.75"><defs><style>.cls-1{fill:#9d9999;}</style></defs><title>Pipe_full</title><g id="Layer_2" data-name="Layer 2"><g id="Icon"><path class="cls-1" d="M119.1,13c-5.52,6.86-10.92,13.72-16.45,20.57a7.89,7.89,0,0,0-1.65,5V274.31a4.44,4.44,0,0,1-4.44,4.44H5.44A4.44,4.44,0,0,1,1,274.31V263.2a4.44,4.44,0,0,1,4.44-4.44H77.56A4.44,4.44,0,0,0,82,254.31V198.2a4.44,4.44,0,0,0-4.44-4.44H4.44A4.44,4.44,0,0,1,0,189.31V178.2a4.44,4.44,0,0,1,4.44-4.44H77.56A4.44,4.44,0,0,0,82,169.31V114.2a4.44,4.44,0,0,0-4.44-4.44H5.63a4.36,4.36,0,0,1-2.11-.53,13.42,13.42,0,0,1-1.94-1.29A4.37,4.37,0,0,1,0,104.53V95.2a4.44,4.44,0,0,1,4.41-4.45H72.78a9,9,0,0,0,2.48-.57,7.72,7.72,0,0,0,1.07-.43A8.38,8.38,0,0,0,81,82.34V40.88a8.17,8.17,0,0,0-2.29-5.49L58.52,14A8,8,0,0,1,65.65.68,130,130,0,0,0,95.37,2.19a130.26,130.26,0,0,0,16.08-2A8,8,0,0,1,119.1,13Z"/></g></g></svg>