<svg xmlns="http://www.w3.org/2000/svg" viewBox="0 0 121.01 196.53"><defs><style>.cls-1{fill:#9d9999;}</style></defs><title>Pipe_2</title><g id="Layer_2" data-name="Layer 2"><g id="Icon"><path class="cls-1" d="M119.21,13c-5.52,6.86-11,13.72-16.5,20.57a7.89,7.89,0,0,0-1.71,5V196.53H81.68a4.15,4.15,0,0,0-4-3H4.56A4.36,4.36,0,0,1,0,189.31V178.2a4.73,4.73,0,0,1,4.56-4.67H77.67A4.17,4.17,0,0,0,82,169.31V114.2a4.55,4.55,0,0,0-4.33-4.67H5.74a4.21,4.21,0,0,1-2.11-.42,12.55,12.55,0,0,1-2-1.24A4.26,4.26,0,0,1,0,104.53V95.2a4.73,4.73,0,0,1,4.52-4.67H72.89a8.92,8.92,0,0,0,2.48-.46,5.94,5.94,0,0,0,1-.38A8.26,8.26,0,0,0,81,82.34V40.88a8.11,8.11,0,0,0-2.23-5.49L58.6,14A8,8,0,0,1,65.75.68,129.94,129.94,0,0,0,95.47,2.19a130.42,130.42,0,0,0,16.09-2A8,8,0,0,1,119.21,13Z"/></g></g></svg>