<svg xmlns="http://www.w3.org/2000/svg" viewBox="0 0 71.06 77"><defs><style>.cls-1{fill:#fff;}</style></defs><title>Reserve</title><g id="Layer_2" data-name="Layer 2"><g id="Detail"><path class="cls-1" d="M71.06,35.5A35.53,35.53,0,1,0,34.81,71v5a1,1,0,0,0,2,0V71A35.67,35.67,0,0,0,71.06,35.5ZM35.81,34a1,1,0,0,0-1,1V47.54a12.07,12.07,0,0,1,.88-24.11A11.92,11.92,0,0,1,47.57,35.5a12.2,12.2,0,0,1-10.76,12V35A1,1,0,0,0,35.81,34Zm1,15.49a13.59,13.59,0,0,0,12.82-14A14,14,0,0,0,35.69,21.43,14.25,14.25,0,0,0,21.43,35.5a14.29,14.29,0,0,0,13.38,14v9.09a23.15,23.15,0,0,1,.88-46.28,23,23,0,0,1,23,23.15A22.67,22.67,0,0,1,36.81,58.59Zm0,19.48V60.6a24.8,24.8,0,0,0,23.9-25.1,25.07,25.07,0,0,0-25-25.15A25.34,25.34,0,0,0,10.35,35.5,25.45,25.45,0,0,0,34.81,60.63V69a33.61,33.61,0,1,1,2,0Z"/></g></g></svg>