<svg xmlns="http://www.w3.org/2000/svg" viewBox="0 0 48 66"><defs><style>.cls-1{fill:#fff;}</style></defs><title>Suspense</title><g id="Layer_2" data-name="Layer 2"><g id="Icon"><path class="cls-1" d="M15.11,32.81c-6.42,2.45-10.37,8.34-11.42,17A44,44,0,0,0,4,62.06,1.13,1.13,0,0,0,5,63H5l35.77-.23a1.13,1.13,0,0,0,1-1A38.09,38.09,0,0,0,41,44.33,18,18,0,0,0,33,33.7c-3.13-1.78-6.59-2.1-9.93-2.42a28.78,28.78,0,0,1-7.42-1.34C8.19,27.19,6.2,19.9,5.68,15.8c-.12-.93-.37-8.73,0-10.8H39.84c.63,3.86,2.64,20.74-9.58,25.32a1,1,0,1,0,.7,1.87C46.32,26.44,41.7,4,41.65,3.79a1,1,0,0,0-1-.79H5.12a1.16,1.16,0,0,0-.88.41C3,4.86,3.68,16,3.69,16.06c1,7.85,5,13.44,11.22,15.75a30.69,30.69,0,0,0,7.93,1.46c3.28.31,6.37.6,9.13,2.17a16,16,0,0,1,7.13,9.49,35.57,35.57,0,0,1,.83,15.72l-34.07.09c-.58-4-2.34-21.39,10-26.09a1,1,0,1,0-.71-1.84Z"/><path class="cls-1" d="M47,64H1a1,1,0,0,0,0,2H47a1,1,0,0,0,0-2Z"/><path class="cls-1" d="M1.7,2H44a1,1,0,0,0,0-2H1.7a1,1,0,0,0,0,2Z"/><path class="cls-1" d="M38.62,13.17a1.16,1.16,0,0,0-1-1.17H9a1.16,1.16,0,0,0-1,1.17,15.33,15.33,0,1,0,30.67,0ZM23.28,26.33A13.27,13.27,0,0,1,10,14H36.58A13.27,13.27,0,0,1,23.28,26.33Z"/><path class="cls-1" d="M9.53,57.4a1,1,0,0,0,.92.6h0l26-.33a1,1,0,0,0,.7-1.7l-13-13.17a1.28,1.28,0,0,0-.72-.3,1,1,0,0,0-.71.31l-13,13.5A1,1,0,0,0,9.53,57.4ZM23.46,44.93,34.09,55.7,12.83,56Z"/></g></g></svg>